<svg width="20" height="20" viewBox="0 0 20 20" fill="none" xmlns="http://www.w3.org/2000/svg">
<path d="M4.16406 12.4974C4.16406 9.27573 6.68246 6.66406 9.78906 6.66406H10.2057C13.3123 6.66406 15.8307 9.27573 15.8307 12.4974C15.8307 15.7191 13.3123 18.3307 10.2057 18.3307H9.78906C6.68246 18.3307 4.16406 15.7191 4.16406 12.4974Z" stroke="#DDF988" stroke-width="1.25"/>
<path d="M10.4141 14.9956V10.7862C10.4141 10.3074 10.4141 10.0681 10.2221 10.0085C9.79995 9.87751 9.16406 10.8286 9.16406 10.8286M10.4141 14.9956H9.16406M10.4141 14.9956H11.6641" stroke="#DDF988" stroke-width="1.25" stroke-linecap="round" stroke-linejoin="round"/>
<path d="M11.2974 1.66406L9.16406 6.57892M14.9974 1.66406L12.6462 7.08073" stroke="#DDF988" stroke-width="1.25" stroke-linecap="round"/>
<path d="M8.69604 1.66406L9.99609 4.6591M4.99609 1.66406L7.3473 7.08073" stroke="#DDF988" stroke-width="1.25" stroke-linecap="round"/>
</svg>
