<svg width="28" height="29" viewBox="0 0 28 29" fill="none" xmlns="http://www.w3.org/2000/svg">
<path d="M9.74724 7.0493C9.74724 9.26518 11.8002 11.0615 14.3326 11.0615C16.865 11.0615 18.918 9.26518 18.918 7.0493C18.918 4.83343 16.865 3.03711 14.3326 3.03711C11.8002 3.03711 9.74724 4.83343 9.74724 7.0493Z" stroke="#F8F8F8" stroke-opacity="0.8" stroke-width="1.71951" style="mix-blend-mode:plus-lighter"/>
<path d="M4.0749 17.9986L4.92857 18.1007V18.1007L4.0749 17.9986ZM7.39328 17.9986L8.24695 17.8965L7.39328 17.9986ZM7.59228 16.5339L8.38534 16.8659L7.59228 16.5339ZM8.0212 23.2941L7.16292 23.3444L8.0212 23.2941ZM3.44698 23.2941L2.58869 23.2438L2.58869 23.2438L3.44698 23.2941ZM3.8759 16.5339L3.08283 16.8659L3.08283 16.8659L3.8759 16.5339ZM3.52471 15.0261L2.76333 14.6268L2.76113 14.631L3.52471 15.0261ZM7.94347 15.0261L8.70707 14.631L8.70484 14.6268L7.94347 15.0261ZM4.87333 14.5005C4.87333 14.9754 5.25825 15.3603 5.73308 15.3603C6.20791 15.3603 6.59284 14.9754 6.59284 14.5005H4.87333ZM14.3306 3.89687C14.8055 3.89687 15.1904 3.51194 15.1904 3.03711C15.1904 2.56228 14.8055 2.17735 14.3306 2.17735V3.89687ZM6.76523 5.95886C6.48001 6.33849 6.55654 6.87745 6.93616 7.16266C7.31579 7.44788 7.85475 7.37135 8.13997 6.99173L6.76523 5.95886ZM6.87093 9.57073C6.99725 9.11301 6.72861 8.63955 6.2709 8.51322C5.81318 8.38689 5.33972 8.65553 5.21339 9.11325L6.87093 9.57073ZM3.08283 16.8659C3.24212 17.2464 3.25899 17.306 3.26557 17.3545C3.27261 17.4063 3.27158 17.4755 3.22123 17.8965L4.92857 18.1007C4.96926 17.7605 5.01268 17.4412 4.96943 17.1229C4.92573 16.8013 4.79757 16.5091 4.66896 16.2019L3.08283 16.8659ZM8.24695 17.8965C8.1966 17.4755 8.19557 17.4063 8.20261 17.3545C8.20919 17.306 8.22606 17.2464 8.38534 16.8659L6.79921 16.2019C6.6706 16.5091 6.54245 16.8013 6.49875 17.1229C6.4555 17.4412 6.49892 17.7605 6.53961 18.1007L8.24695 17.8965ZM8.87949 23.2438C8.7742 21.4467 8.44833 19.5801 8.24695 17.8965L6.53961 18.1007C6.75738 19.9214 7.06128 21.6096 7.16292 23.3444L8.87949 23.2438ZM3.22123 17.8965C3.01985 19.5801 2.69398 21.4467 2.58869 23.2438L4.30526 23.3444C4.4069 21.6096 4.71079 19.9214 4.92857 18.1007L3.22123 17.8965ZM5.73409 25.1042C4.99821 25.1042 4.23808 24.4911 4.30526 23.3444L2.58869 23.2438C2.46633 25.3323 3.96384 26.8237 5.73409 26.8237V25.1042ZM5.73409 26.8237C7.50433 26.8237 9.00185 25.3323 8.87949 23.2438L7.16292 23.3444C7.2301 24.4911 6.46997 25.1042 5.73409 25.1042V26.8237ZM4.28608 15.4255C4.18777 15.6129 4.05606 15.6448 4.1497 15.6014C4.20619 15.5751 4.31371 15.5377 4.47983 15.4999C4.80741 15.4253 5.25178 15.3739 5.71623 15.3626C6.18269 15.3513 6.62306 15.3815 6.94806 15.4483C7.11187 15.482 7.21433 15.5185 7.26686 15.5444C7.33203 15.5765 7.2506 15.5561 7.1821 15.4255L8.70484 14.6268C8.53197 14.2972 8.24399 14.1089 8.02638 14.0017C7.79614 13.8884 7.5396 13.8144 7.29412 13.764C6.80055 13.6626 6.22122 13.6303 5.67444 13.6436C5.12565 13.6569 4.56324 13.7174 4.09808 13.8233C3.86784 13.8757 3.6325 13.9457 3.4256 14.0417C3.25584 14.1206 2.94018 14.2896 2.76334 14.6268L4.28608 15.4255ZM4.66896 16.2019C4.62165 16.0889 4.54949 15.9393 4.50353 15.8398C4.44895 15.7217 4.40305 15.6158 4.36903 15.5182C4.33401 15.4177 4.32244 15.3559 4.32015 15.3259C4.31798 15.2975 4.32761 15.3453 4.2883 15.4213L2.76113 14.631C2.47079 15.1921 2.6421 15.788 2.74529 16.0841C2.80737 16.2622 2.88141 16.4286 2.94247 16.5608C3.01215 16.7117 3.05131 16.7906 3.08283 16.8659L4.66896 16.2019ZM8.38534 16.8659C8.41687 16.7906 8.45603 16.7117 8.52571 16.5608C8.58676 16.4286 8.66081 16.2622 8.72289 16.0841C8.82607 15.788 8.99739 15.1921 8.70706 14.631L7.17988 15.4212C7.14057 15.3453 7.15019 15.2975 7.14803 15.3259C7.14574 15.3559 7.13417 15.4177 7.09915 15.5182C7.06513 15.6158 7.01923 15.7217 6.96465 15.8398C6.91869 15.9393 6.84653 16.0889 6.79921 16.2019L8.38534 16.8659ZM4.87333 11.6347V14.5005H6.59284V11.6347H4.87333ZM14.3306 2.17735C11.2364 2.17735 8.48922 3.66424 6.76523 5.95886L8.13997 6.99173C9.55315 5.11079 11.8 3.89687 14.3306 3.89687V2.17735ZM5.21339 9.11325C4.99157 9.91695 4.87333 10.7627 4.87333 11.6347H6.59284C6.59284 10.9187 6.68984 10.2268 6.87093 9.57073L5.21339 9.11325Z" fill="#F8F8F8" fill-opacity="0.8" style="mix-blend-mode:plus-lighter"/>
<path d="M21.2724 17.9986L22.1261 18.1007V18.1007L21.2724 17.9986ZM24.5908 17.9986L25.4445 17.8965L24.5908 17.9986ZM24.7898 16.5339L25.5829 16.8659L24.7898 16.5339ZM25.2187 23.2941L24.3604 23.3444L25.2187 23.2941ZM20.6445 23.2941L19.7862 23.2438V23.2438L20.6445 23.2941ZM21.0734 16.5339L20.2803 16.8659L20.2803 16.8659L21.0734 16.5339ZM20.7222 15.0261L19.9608 14.6268L19.9586 14.631L20.7222 15.0261ZM25.141 15.0261L25.9046 14.631L25.9024 14.6268L25.141 15.0261ZM22.0698 14.5005C22.0698 14.9754 22.4548 15.3603 22.9296 15.3603C23.4044 15.3603 23.7893 14.9754 23.7893 14.5005H22.0698ZM14.332 2.17735C13.8572 2.17735 13.4723 2.56228 13.4723 3.03711C13.4723 3.51194 13.8572 3.89687 14.332 3.89687V2.17735ZM20.2803 16.8659C20.4396 17.2464 20.4565 17.306 20.4631 17.3544C20.4701 17.4063 20.4691 17.4755 20.4187 17.8965L22.1261 18.1007C22.1668 17.7605 22.2102 17.4412 22.1669 17.1229C22.1232 16.8013 21.9951 16.5091 21.8665 16.2019L20.2803 16.8659ZM25.4445 17.8965C25.3941 17.4755 25.3931 17.4063 25.4001 17.3545C25.4067 17.306 25.4236 17.2464 25.5829 16.8659L23.9967 16.2019C23.8681 16.5091 23.74 16.8013 23.6963 17.1229C23.653 17.4412 23.6964 17.7605 23.7371 18.1007L25.4445 17.8965ZM26.077 23.2438C25.9717 21.4467 25.6458 19.5801 25.4445 17.8965L23.7371 18.1007C23.9549 19.9214 24.2588 21.6096 24.3604 23.3444L26.077 23.2438ZM20.4187 17.8965C20.2174 19.5801 19.8915 21.4467 19.7862 23.2438L21.5028 23.3444C21.6044 21.6096 21.9083 19.9214 22.1261 18.1007L20.4187 17.8965ZM22.9316 25.1042C22.1957 25.1042 21.4356 24.4911 21.5028 23.3444L19.7862 23.2438C19.6638 25.3323 21.1614 26.8237 22.9316 26.8237V25.1042ZM22.9316 26.8237C24.7018 26.8237 26.1994 25.3323 26.077 23.2438L24.3604 23.3444C24.4276 24.4911 23.6675 25.1042 22.9316 25.1042V26.8237ZM21.4836 15.4255C21.3853 15.6129 21.2536 15.6448 21.3472 15.6014C21.4037 15.5751 21.5112 15.5377 21.6773 15.4999C22.0049 15.4253 22.4493 15.3739 22.9137 15.3626C23.3802 15.3513 23.8206 15.3815 24.1456 15.4483C24.3094 15.482 24.4118 15.5185 24.4644 15.5444C24.5295 15.5765 24.4481 15.5561 24.3796 15.4255L25.9024 14.6268C25.7295 14.2972 25.4415 14.1089 25.2239 14.0017C24.9937 13.8884 24.7371 13.8144 24.4916 13.764C23.9981 13.6626 23.4187 13.6303 22.872 13.6436C22.3232 13.6569 21.7608 13.7174 21.2956 13.8233C21.0654 13.8757 20.83 13.9457 20.6231 14.0417C20.4533 14.1206 20.1377 14.2896 19.9609 14.6268L21.4836 15.4255ZM21.8665 16.2019C21.8192 16.0889 21.747 15.9393 21.701 15.8398C21.6465 15.7217 21.6006 15.6158 21.5665 15.5182C21.5315 15.4177 21.52 15.3559 21.5177 15.3259C21.5155 15.2975 21.5251 15.3453 21.4858 15.4213L19.9586 14.631C19.6683 15.1921 19.8396 15.788 19.9428 16.0841C20.0049 16.2622 20.0789 16.4286 20.14 16.5608C20.2097 16.7117 20.2488 16.7906 20.2803 16.8659L21.8665 16.2019ZM25.5829 16.8659C25.6144 16.7906 25.6535 16.7117 25.7232 16.5608C25.7843 16.4286 25.8583 16.2622 25.9204 16.0841C26.0236 15.788 26.1949 15.1921 25.9046 14.631L24.3774 15.4212C24.3381 15.3453 24.3477 15.2975 24.3455 15.3259C24.3433 15.3559 24.3317 15.4177 24.2967 15.5182C24.2626 15.6158 24.2167 15.7217 24.1622 15.8398C24.1162 15.9393 24.044 16.0889 23.9967 16.2019L25.5829 16.8659ZM22.0698 11.6347V14.5005H23.7893V11.6347H22.0698ZM14.332 3.89687C18.6055 3.89687 22.0698 7.3612 22.0698 11.6347H23.7893C23.7893 6.41154 19.5552 2.17735 14.332 2.17735V3.89687Z" fill="#F8F8F8" fill-opacity="0.8" style="mix-blend-mode:plus-lighter"/>
</svg>
