<svg width="28" height="28" viewBox="0 0 28 28" fill="none" xmlns="http://www.w3.org/2000/svg">
<path d="M19.4898 5.40311C19.4898 6.35277 18.72 7.12262 17.7703 7.12262C16.8206 7.12262 16.0508 6.35277 16.0508 5.40311C16.0508 4.45345 16.8206 3.68359 17.7703 3.68359C18.72 3.68359 19.4898 4.45345 19.4898 5.40311Z" stroke="#F8F8F8" stroke-opacity="0.8" stroke-width="1.71951" style="mix-blend-mode:plus-lighter"/>
<path d="M17.1999 24.3177L16.4386 21.3189C16.1866 20.3265 15.6655 19.4201 14.9309 18.6967L13.1877 16.98M6.88281 13.0292C8.02915 10.7712 9.79185 9.46284 13.7609 9.4159M13.7609 9.4159C14.0115 9.41294 14.3849 9.41205 14.758 9.41211C15.3367 9.41221 15.6261 9.41226 15.8566 9.51997C16.0872 9.62768 16.3236 9.91021 16.7966 10.4753C16.9321 10.6372 17.0712 10.7822 17.1999 10.8787M13.7609 9.4159L12.306 11.6607C11.5062 12.8948 11.1063 13.5119 11.0907 14.1598C11.0837 14.4484 11.1314 14.7357 11.231 15.0066C11.4548 15.6149 12.0324 16.0699 13.1877 16.98M17.1999 10.8787C18.5236 11.8713 20.5961 12.2711 22.9316 9.64262M17.1999 10.8787L13.1877 16.98" stroke="#F8F8F8" stroke-opacity="0.8" stroke-width="1.71951" stroke-linecap="round" stroke-linejoin="round" style="mix-blend-mode:plus-lighter"/>
<path d="M4.58984 20.5694L5.36732 20.7544C7.34866 21.2258 9.4082 20.3243 10.3216 18.5859" stroke="#F8F8F8" stroke-opacity="0.8" stroke-width="1.71951" stroke-linecap="round" stroke-linejoin="round" style="mix-blend-mode:plus-lighter"/>
</svg>
