<svg width="18" height="10" viewBox="0 0 18 10" fill="none" xmlns="http://www.w3.org/2000/svg">
<path d="M9.00285 10C9.33716 10 9.62231 9.87217 9.87797 9.60669L17.3804 1.93707C17.5967 1.73058 17.7049 1.45526 17.7049 1.14061C17.7049 0.501476 17.2133 2.01679e-07 16.5643 1.93941e-07C16.2497 1.90188e-07 15.9645 0.127827 15.7482 0.34415L9.00285 7.25664L2.25752 0.34415C2.03136 0.127827 1.74621 1.72366e-08 1.43156 1.34844e-08C0.792423 5.86277e-09 0.300781 0.501475 0.300781 1.14061C0.300781 1.45526 0.408943 1.73058 0.625265 1.93707L8.12772 9.60669C8.38338 9.87217 8.66853 9.99017 9.00285 10Z" fill="#5ECC7B"/>
</svg>
