<svg width="30" height="30" viewBox="0 0 30 30" fill="none" xmlns="http://www.w3.org/2000/svg">
<path d="M3.99256 17.5962C2.43204 19.1352 2.30546 22.022 2.67069 24.6885C3.00208 27.1079 5.72421 28.2481 7.76499 26.9703C11.4983 24.6326 15.3974 21.5526 19.1333 17.8683C22.9715 14.0832 25.0745 11.2017 26.9294 7.95933C28.0541 5.99321 27.5273 3.3716 25.2496 2.79021C22.756 2.15372 19.5239 2.41486 16.6719 5.0968M3.99256 17.5962C2.95039 12.9212 6.61284 7.41477 15.207 12.2428M3.99256 17.5962C4.7717 17.6121 6.52198 17.9646 8.19301 19.1555M8.5574 10.2443C8.63623 7.81851 11.0282 3.756 16.6719 5.0968M16.6719 5.0968C17.88 5.38382 19.2372 5.91845 20.7525 6.76973" stroke="#F8F8F8" stroke-width="1.875" stroke-linecap="round" stroke-linejoin="round"/>
</svg>
