<svg width="32" height="32" viewBox="0 0 32 32" fill="none" xmlns="http://www.w3.org/2000/svg">
<path d="M24.0039 2.66602V5.33268M8.00391 2.66602V5.33268" stroke="#F8F8F8" stroke-width="2" stroke-linecap="round" stroke-linejoin="round"/>
<path d="M4.66797 10.666H27.3346" stroke="#F8F8F8" stroke-width="2" stroke-linecap="round" stroke-linejoin="round"/>
<path d="M3.33594 16.3243C3.33594 10.5146 3.33594 7.60971 5.00543 5.80486C6.67492 4 9.36193 4 14.7359 4H17.2693C22.6433 4 25.3303 4 26.9998 5.80486C28.6693 7.60971 28.6693 10.5146 28.6693 16.3243V17.009C28.6693 22.8188 28.6693 25.7236 26.9998 27.5285C25.3303 29.3333 22.6433 29.3333 17.2693 29.3333H14.7359C9.36193 29.3333 6.67492 29.3333 5.00543 27.5285C3.33594 25.7236 3.33594 22.8188 3.33594 17.009V16.3243Z" stroke="#F8F8F8" stroke-width="2" stroke-linecap="round" stroke-linejoin="round"/>
<path d="M4.00391 10.666H28.0039" stroke="#F8F8F8" stroke-width="2" stroke-linecap="round" stroke-linejoin="round"/>
<path d="M20.6693 16L13.7086 23L11.3359 20.6139" stroke="#F8F8F8" stroke-width="2" stroke-linecap="round" stroke-linejoin="round"/>
</svg>
