<svg width="17" height="17" viewBox="0 0 17 17" fill="none" xmlns="http://www.w3.org/2000/svg">
<path d="M12.5195 1.80664V3.14518M4.48828 1.80664V3.14518" stroke="#F8F8F8" stroke-opacity="0.8" stroke-width="1.00391" stroke-linecap="round" stroke-linejoin="round" style="mix-blend-mode:plus-lighter"/>
<path d="M8.4983 9.16797H8.5043M8.4983 11.8451H8.5043M11.1724 9.16797H11.1784M5.82422 9.16797H5.83022M5.82422 11.8451H5.83022" stroke="#F8F8F8" stroke-opacity="0.8" stroke-width="1.33854" stroke-linecap="round" stroke-linejoin="round" style="mix-blend-mode:plus-lighter"/>
<path d="M2.8125 5.82227H14.1901" stroke="#F8F8F8" stroke-opacity="0.8" stroke-width="1.00391" stroke-linecap="round" stroke-linejoin="round" style="mix-blend-mode:plus-lighter"/>
<path d="M2.14453 8.6628C2.14453 5.74658 2.14453 4.28847 2.98254 3.38252C3.82054 2.47656 5.1693 2.47656 7.8668 2.47656H9.13841C11.8359 2.47656 13.1847 2.47656 14.0227 3.38252C14.8607 4.28847 14.8607 5.74658 14.8607 8.6628V9.00648C14.8607 11.9227 14.8607 13.3808 14.0227 14.2868C13.1847 15.1927 11.8359 15.1927 9.13841 15.1927H7.8668C5.1693 15.1927 3.82054 15.1927 2.98254 14.2868C2.14453 13.3808 2.14453 11.9227 2.14453 9.00648V8.6628Z" stroke="#F8F8F8" stroke-opacity="0.8" stroke-width="1.00391" stroke-linecap="round" stroke-linejoin="round" style="mix-blend-mode:plus-lighter"/>
<path d="M2.48047 5.82227H14.5273" stroke="#F8F8F8" stroke-opacity="0.8" stroke-width="1.00391" stroke-linecap="round" stroke-linejoin="round" style="mix-blend-mode:plus-lighter"/>
</svg>
