<svg width="30" height="30" viewBox="0 0 30 30" fill="none" xmlns="http://www.w3.org/2000/svg">
<path d="M15.0724 27.5C21.2156 27.5 26.3298 23.1171 27.4271 17.3232C27.7496 15.6208 26.9914 15.7107 25.3877 15.4298C24.2495 15.2304 23.1873 14.4584 22.7917 13.235C22.5223 12.402 22.4221 12.3684 21.544 12.3319C19.7327 12.2566 18.2813 10.3361 19.0041 8.78253C19.2738 8.20295 19.2651 8.13615 18.7598 7.7431C17.8756 7.05537 17.4633 5.77075 17.6223 4.53254C17.7935 3.19887 17.8935 2.71837 16.4819 2.56818C9.32073 1.80626 2.5 7.5245 2.5 14.9934C2.5 21.9006 8.12887 27.5 15.0724 27.5Z" stroke="#F8F8F8" stroke-width="1.46342"/>
<path d="M13.7578 14.998L13.7465 14.998" stroke="#F8F8F8" stroke-width="1.46342" stroke-linecap="round" stroke-linejoin="round"/>
<path d="M7.50781 12.5L7.49654 12.5" stroke="#F8F8F8" stroke-width="1.46342" stroke-linecap="round" stroke-linejoin="round"/>
<path d="M15.0078 22.498L14.9965 22.498" stroke="#F8F8F8" stroke-width="1.46342" stroke-linecap="round" stroke-linejoin="round"/>
<path d="M12.5 7.5L11.25 8.75" stroke="#F8F8F8" stroke-width="1.46342" stroke-linecap="round" stroke-linejoin="round"/>
<path d="M21.25 17.498L20 18.748" stroke="#F8F8F8" stroke-width="1.46342" stroke-linecap="round" stroke-linejoin="round"/>
<path d="M8.7539 18.75L10.0039 20" stroke="#F8F8F8" stroke-width="1.46342" stroke-linecap="round" stroke-linejoin="round"/>
</svg>
