<svg width="117" height="49" viewBox="0 0 117 49" fill="none" xmlns="http://www.w3.org/2000/svg">
<path d="M17.5 21.7521H26.4181L31.4272 36.7937L53.3882 0H69.3158L34.4077 47.7895H26.4181L17.5 21.7521Z" fill="url(#paint0_radial_8675_12547)"/>
<path d="M99.9688 47.7894L104.106 21.752H117L116.001 28.0651H110.384L109.831 31.3822H114.914L113.968 37.4814H108.886L108.297 41.066H113.933L112.863 47.7894H99.9688Z" fill="white"/>
<path d="M82.9375 21.752H90.1781L90.2137 38.7655L95.6174 21.752H102.858L92.764 47.7894H84.7744L82.9375 21.752Z" fill="white"/>
<path d="M67.7969 47.7894L71.9343 21.752H79.2284L76.1253 41.3335H81.4576L80.4411 47.7894H67.7969Z" fill="white"/>
<path d="M55.3314 39.1034C55.3314 40.0783 55.4622 40.7917 55.7238 41.2435C55.9853 41.6834 56.4014 41.9033 56.9721 41.9033C57.4834 41.9033 57.9233 41.7012 58.2918 41.297C58.6723 40.8927 59.0111 40.2448 59.3084 39.3531C59.7007 38.1998 60.0158 36.8088 60.2536 35.1799C60.5032 33.5392 60.6281 31.9817 60.6281 30.5075C60.6281 29.5326 60.5032 28.8192 60.2536 28.3674C60.0039 27.9037 59.6175 27.6719 59.0944 27.6719C58.5356 27.6719 58.06 27.874 57.6677 28.2782C57.2872 28.6706 56.9602 29.3067 56.6868 30.1865C56.2944 31.3873 55.9675 32.814 55.7059 34.4666C55.4563 36.1192 55.3314 37.6648 55.3314 39.1034ZM56.2053 48.3057C53.7442 48.3057 51.7646 47.414 50.2666 45.6306C48.7686 43.8472 48.0195 41.4753 48.0195 38.5149C48.0195 36.1014 48.3287 33.7532 48.9469 31.4705C49.577 29.1878 50.4271 27.2736 51.4971 25.728C52.5434 24.23 53.7501 23.1124 55.1174 22.3752C56.4966 21.6381 58.0659 21.2695 59.8255 21.2695C62.3342 21.2695 64.3256 22.1493 65.7999 23.9089C67.2742 25.6567 68.0113 28.0405 68.0113 31.0603C68.0113 33.4857 67.7022 35.8279 67.0839 38.0869C66.4657 40.3458 65.6156 42.2659 64.5337 43.8472C63.5231 45.3334 62.3223 46.4509 60.9312 47.2C59.5521 47.9371 57.9768 48.3057 56.2053 48.3057Z" fill="white"/>
<path d="M0 47.7894L4.13746 21.752H17.0313L16.0326 28.0651H10.415L9.86213 31.3822H14.9448L13.9996 37.4814H8.91693L8.32841 41.066H13.9639L12.8939 47.7894H0Z" fill="white"/>
<defs>
<radialGradient id="paint0_radial_8675_12547" cx="0" cy="0" r="1" gradientUnits="userSpaceOnUse" gradientTransform="translate(43.4927 -2.59371e-06) rotate(90.1016) scale(47.7896 51.8166)">
<stop stop-color="#97EBAD"/>
<stop offset="1" stop-color="#439258"/>
</radialGradient>
</defs>
</svg>
