<svg width="32" height="32" viewBox="0 0 32 32" fill="none" xmlns="http://www.w3.org/2000/svg">
<path d="M22.4016 5.33359C22.4016 6.65908 21.327 7.73359 20.0016 7.73359C18.6761 7.73359 17.6016 6.65908 17.6016 5.33359C17.6016 4.00811 18.6761 2.93359 20.0016 2.93359C21.327 2.93359 22.4016 4.00811 22.4016 5.33359Z" stroke="#F8F8F8" stroke-width="2"/>
<path d="M19.7755 20.534L21.2855 19.6604C23.0049 18.6656 23.8647 18.1682 23.9808 17.4594C23.999 17.3486 24.0037 17.2366 23.9949 17.125C23.9387 16.4107 23.1231 15.8602 21.4918 14.7591L13.9606 9.67574C11.0027 7.67921 10.3222 4.0398 12.4008 1.33398" stroke="#F8F8F8" stroke-width="2" stroke-linecap="round" stroke-linejoin="round"/>
<path d="M13.9575 9.67574C9.9575 13.6757 7.99609 24.7457 7.99609 30.1345M13.9575 9.67574C10.9996 7.67921 10.319 4.0398 12.3976 1.33398M13.9575 9.67574L18.1921 12.534M19.7724 20.534L21.2824 19.6604C23.0018 18.6656 23.8616 18.1682 23.9777 17.4594C23.9959 17.3486 24.0006 17.2366 23.9918 17.125C23.9355 16.4107 23.1199 15.8602 21.4887 14.7591L18.1921 12.534M20.7963 30.1345C19.239 28.3175 17.6373 25.814 16.0763 23.5065C14.9827 21.8899 14.4359 21.0815 14.3713 20.2352M18.1921 12.534C16.9077 14.1965 16.0223 15.7671 15.3603 17.1647C14.6579 18.6474 14.3067 19.3888 14.3713 20.2352M14.3713 20.2352L9.59609 18.934" stroke="#F8F8F8" stroke-width="2" stroke-linecap="round" stroke-linejoin="round"/>
</svg>
