<svg width="17" height="16" viewBox="0 0 17 16" fill="none" xmlns="http://www.w3.org/2000/svg">
<path d="M13.8947 9.43745L13.8948 9.43741C14.3681 8.78828 14.7403 8.12257 15.0151 7.44023C15.2796 6.78307 15.41 6.11476 15.41 5.43058C15.41 4.64906 15.2473 3.98756 14.9426 3.42573C14.6336 2.85579 14.2131 2.41726 13.6746 2.09646L13.8947 9.43745ZM13.8947 9.43745C13.4127 10.0986 12.8728 10.7214 12.2743 11.3061L13.8947 9.43745ZM8.87836 3.49453C9.19105 2.91024 9.60088 2.45326 10.1086 2.1094L12.2743 11.3062C11.6653 11.901 11.0414 12.4477 10.4026 12.9467C9.75535 13.4521 9.13782 13.8956 8.54988 14.2783L8.54986 14.2782L8.54311 14.2827C8.4475 14.3464 8.34525 14.411 8.23622 14.4762C8.10466 14.406 7.97772 14.336 7.85535 14.2664C7.27094 13.8853 6.65552 13.4468 6.00895 12.9502L6.00889 12.9501C5.36702 12.4572 4.74227 11.9141 4.13477 11.3206L4.13472 11.3205C3.53617 10.7358 2.99619 10.113 2.51418 9.45195L2.51417 9.45195C2.04205 8.80449 1.67308 8.13817 1.4034 7.45287L1.40339 7.45284C1.14217 6.7891 1.01349 6.11648 1.01349 5.43058C1.01349 4.64905 1.17615 3.98755 1.48081 3.42571L1.48082 3.42571C1.78985 2.85578 2.21029 2.41725 2.74892 2.09645C3.27731 1.78175 3.89555 1.61506 4.6262 1.61506C5.29128 1.61506 5.84649 1.78484 6.31969 2.10783C6.82502 2.45273 7.23984 2.91251 7.56349 3.50171L8.22755 4.71064L8.87836 3.49453ZM10.1087 2.10936C10.5896 1.78378 11.144 1.61506 11.7972 1.61506C12.5279 1.61506 13.1461 1.78174 13.6745 2.09644L10.1087 2.10936Z" stroke="#DDF988" stroke-width="1.49574"/>
</svg>
