<svg width="162" height="92" viewBox="0 0 162 92" fill="none" xmlns="http://www.w3.org/2000/svg">
<rect x="0.5" y="0.5" width="161" height="91" rx="11.5" fill="black" fill-opacity="0.71"/>
<rect x="0.5" y="0.5" width="161" height="91" rx="11.5" stroke="#5ECC7B"/>
<path d="M12.9092 21V11.1357H14.4404V19.6807H19.0342V21H12.9092ZM22.2812 21.1299C20.8457 21.1299 19.8818 20.248 19.8818 18.9561V18.9424C19.8818 17.6914 20.8525 16.9258 22.5547 16.8232L24.5098 16.707V16.167C24.5098 15.374 23.9971 14.8955 23.0811 14.8955C22.2266 14.8955 21.7002 15.2988 21.5771 15.873L21.5635 15.9346H20.1689L20.1758 15.8594C20.2783 14.6221 21.3516 13.6719 23.1221 13.6719C24.8789 13.6719 25.9932 14.6016 25.9932 16.0439V21H24.5098V19.8652H24.4824C24.0654 20.6377 23.2314 21.1299 22.2812 21.1299ZM21.3721 18.9219C21.3721 19.5508 21.8916 19.9473 22.6846 19.9473C23.7236 19.9473 24.5098 19.2432 24.5098 18.3066V17.7461L22.7529 17.8555C21.8643 17.9102 21.3721 18.2998 21.3721 18.9082V18.9219ZM27.4287 21V13.8086H28.9053V15.0391H28.9395C29.1719 14.1982 29.7734 13.6719 30.5938 13.6719C30.8057 13.6719 30.9902 13.7061 31.1064 13.7266V15.1006C30.9902 15.0527 30.7305 15.0186 30.4434 15.0186C29.4932 15.0186 28.9053 15.6406 28.9053 16.7139V21H27.4287ZM34.8594 23.5361C33.0137 23.5361 31.8447 22.6816 31.626 21.5811L31.6191 21.5195H33.082L33.1094 21.5742C33.3076 22.0322 33.9297 22.3467 34.8525 22.3467C36.0283 22.3467 36.6777 21.7178 36.6777 20.7129V19.7285H36.6436C36.2334 20.5078 35.4131 21.0068 34.3809 21.0068C32.5762 21.0068 31.3867 19.5918 31.3867 17.3496V17.3428C31.3867 15.0869 32.5898 13.6719 34.415 13.6719C35.4268 13.6719 36.2197 14.2188 36.6436 15.0322H36.6777V13.8086H38.1611V20.8018C38.1611 22.4424 36.8896 23.5361 34.8594 23.5361ZM34.7979 19.8037C35.9258 19.8037 36.6777 18.8535 36.6777 17.3701V17.3633C36.6777 15.8867 35.9189 14.9365 34.7979 14.9365C33.6289 14.9365 32.8975 15.8799 32.8975 17.3633V17.3701C32.8975 18.874 33.6289 19.8037 34.7979 19.8037ZM42.6934 21.1436C40.5811 21.1436 39.3027 19.7012 39.3027 17.4316V17.4248C39.3027 15.1758 40.6016 13.6719 42.6182 13.6719C44.6348 13.6719 45.8721 15.1211 45.8721 17.2812V17.7803H40.7793C40.8066 19.1406 41.5518 19.9336 42.7275 19.9336C43.6025 19.9336 44.1836 19.4824 44.3682 18.9424L44.3887 18.8877H45.79L45.7764 18.9629C45.5439 20.1045 44.4365 21.1436 42.6934 21.1436ZM42.625 14.8818C41.668 14.8818 40.9297 15.5312 40.7998 16.7344H44.4092C44.2861 15.4902 43.5889 14.8818 42.625 14.8818ZM49.8643 23.3926V13.8086H51.3408V15.0459H51.375C51.8057 14.1914 52.5986 13.6719 53.624 13.6719C55.4561 13.6719 56.6318 15.1074 56.6318 17.4043V17.4111C56.6318 19.7012 55.4492 21.1436 53.6445 21.1436C52.626 21.1436 51.7988 20.624 51.375 19.79H51.3408V23.3926H49.8643ZM53.2412 19.8721C54.4033 19.8721 55.1279 18.9287 55.1279 17.4111V17.4043C55.1279 15.873 54.3965 14.9365 53.2412 14.9365C52.1201 14.9365 51.334 15.9072 51.334 17.4043V17.4111C51.334 18.9014 52.127 19.8721 53.2412 19.8721ZM57.835 21V11.1357H59.3115V21H57.835ZM62.9414 21.1299C61.5059 21.1299 60.542 20.248 60.542 18.9561V18.9424C60.542 17.6914 61.5127 16.9258 63.2148 16.8232L65.1699 16.707V16.167C65.1699 15.374 64.6572 14.8955 63.7412 14.8955C62.8867 14.8955 62.3604 15.2988 62.2373 15.873L62.2236 15.9346H60.8291L60.8359 15.8594C60.9385 14.6221 62.0117 13.6719 63.7822 13.6719C65.5391 13.6719 66.6533 14.6016 66.6533 16.0439V21H65.1699V19.8652H65.1426C64.7256 20.6377 63.8916 21.1299 62.9414 21.1299ZM62.0322 18.9219C62.0322 19.5508 62.5518 19.9473 63.3447 19.9473C64.3838 19.9473 65.1699 19.2432 65.1699 18.3066V17.7461L63.4131 17.8555C62.5244 17.9102 62.0322 18.2998 62.0322 18.9082V18.9219ZM70.6113 21.1436C69.1895 21.1436 68.5059 20.542 68.5059 19.1064V14.9844H67.4736V13.8086H68.5059V11.9355H70.0166V13.8086H71.3633V14.9844H70.0166V19.0176C70.0166 19.749 70.3447 19.9678 70.9668 19.9678C71.124 19.9678 71.2539 19.9541 71.3633 19.9404V21.082C71.1924 21.1094 70.9121 21.1436 70.6113 21.1436ZM75.4785 21.1436C73.3662 21.1436 72.0879 19.7012 72.0879 17.4316V17.4248C72.0879 15.1758 73.3867 13.6719 75.4033 13.6719C77.4199 13.6719 78.6572 15.1211 78.6572 17.2812V17.7803H73.5645C73.5918 19.1406 74.3369 19.9336 75.5127 19.9336C76.3877 19.9336 76.9688 19.4824 77.1533 18.9424L77.1738 18.8877H78.5752L78.5615 18.9629C78.3291 20.1045 77.2217 21.1436 75.4785 21.1436ZM75.4102 14.8818C74.4531 14.8818 73.7148 15.5312 73.585 16.7344H77.1943C77.0713 15.4902 76.374 14.8818 75.4102 14.8818Z" fill="#5ECC7B"/>
<circle cx="123.5" cy="51.5" r="14.4375" stroke="#5ECC7B" stroke-width="2"/>
<circle cx="123.5" cy="51.5" r="24.9375" stroke="#5ECC7B" stroke-width="4"/>
</svg>
