<svg width="31" height="31" viewBox="0 0 31 31" fill="none" xmlns="http://www.w3.org/2000/svg">
<path d="M6.5366 15.1695C9.01471 15.4743 11.2803 13.6342 11.597 11.0595C11.9136 8.48484 8.96529 6.00349 10.0363 2.58594C4.73626 3.35382 2.90958 7.6249 2.62291 9.95582C2.30626 12.5305 4.05848 14.8647 6.5366 15.1695Z" stroke="#5ECC7B" stroke-width="1.9375" stroke-linejoin="round"/>
<path d="M9.04427 25.8359C6.55828 19.7963 6.16375 14.4617 6.63241 10.3359" stroke="#5ECC7B" stroke-width="1.9375" stroke-linecap="round" stroke-linejoin="round"/>
<path d="M12.2849 22.8253C13.8025 25.9151 17.468 26.7671 20.472 24.7284C23.476 22.6896 23.9486 17.0408 28.4206 15.0714C23.6484 9.78502 17.696 11.6935 14.9764 13.5392C11.9723 15.5779 10.7673 19.7354 12.2849 22.8253Z" stroke="#5ECC7B" stroke-width="1.9375" stroke-linejoin="round"/>
<path d="M7.75391 28.4193C10.8252 23.1292 14.5537 19.933 18.0872 18.0859" stroke="#5ECC7B" stroke-width="1.9375" stroke-linecap="round" stroke-linejoin="round"/>
</svg>
