<svg width="20" height="20" viewBox="0 0 20 20" fill="none" xmlns="http://www.w3.org/2000/svg">
<path d="M4.21678 9.7864C5.81557 9.98303 7.27724 8.79586 7.48153 7.13479C7.68582 5.47371 5.78368 3.87284 6.47465 1.66797C3.05528 2.16337 1.87677 4.91891 1.69182 6.42273C1.48753 8.08381 2.618 9.58977 4.21678 9.7864Z" stroke="#DDF988" stroke-width="1.25" stroke-linejoin="round"/>
<path d="M5.83464 16.668C4.23077 12.7714 3.97623 9.32975 4.2786 6.66797" stroke="#DDF988" stroke-width="1.25" stroke-linecap="round" stroke-linejoin="round"/>
<path d="M7.92713 14.7274C8.90621 16.7208 11.271 17.2705 13.2091 15.9552C15.1472 14.6399 15.4521 10.9954 18.3372 9.72486C15.2584 6.3143 11.4182 7.54555 9.66355 8.73635C7.72547 10.0517 6.94804 12.7339 7.92713 14.7274Z" stroke="#DDF988" stroke-width="1.25" stroke-linejoin="round"/>
<path d="M5.00391 18.3346C6.98539 14.9217 9.39087 12.8596 11.6706 11.668" stroke="#DDF988" stroke-width="1.25" stroke-linecap="round" stroke-linejoin="round"/>
</svg>
