<svg width="20" height="20" viewBox="0 0 20 20" fill="none" xmlns="http://www.w3.org/2000/svg">
<path d="M1.2249 10.3349C0.981445 10.5796 0.982459 10.9753 1.22716 11.2188C1.47186 11.4622 1.86759 11.4612 2.11104 11.2165L1.2249 10.3349ZM9.5262 1.73436L9.69414 1.13234V1.13234L9.5262 1.73436ZM11.5151 2.28918L11.6831 1.68716V1.68716L11.5151 2.28918ZM12.3736 2.85912L11.8881 3.2527V3.2527L12.3736 2.85912ZM17.1664 10.2648L16.5975 10.5238V10.5238L17.1664 10.2648ZM7.20377 2.95386L6.74411 2.53038V2.53038L7.20377 2.95386ZM9.06861 5.61271L8.9668 4.99606H8.9668L9.06861 5.61271ZM11.447 6.71147L11.9428 6.33086L11.9428 6.33086L11.447 6.71147ZM12.2618 9.69229L11.6406 9.76108L12.2618 9.69229ZM12.8877 11.3047L12.5368 11.8219C12.7994 12.0001 13.1539 11.9531 13.3611 11.7127C13.5683 11.4722 13.5624 11.1146 13.3473 10.8812L12.8877 11.3047ZM6.35578 11.8542C6.14186 12.125 6.18805 12.5181 6.45895 12.732C6.72985 12.9459 7.12287 12.8997 7.33679 12.6288L6.35578 11.8542ZM6.34061 4.46938L5.7249 4.57675L6.34061 4.46938ZM18.1498 14.6673L18.7303 14.8989L18.1498 14.6673ZM14.6149 16.8688L14.8104 17.4625L14.6149 16.8688ZM10.3855 5.51751L10.6234 4.93958L10.6234 4.93958L10.3855 5.51751ZM8.50503 16.9968L8.95375 17.4318L8.95375 17.4318L8.50503 16.9968ZM2.12764 16.502C1.89377 16.2482 1.49837 16.232 1.2445 16.4658C0.99063 16.6997 0.97442 17.0951 1.20829 17.349L2.12764 16.502ZM8.65095 16.7928L8.87853 16.2107C8.59326 16.0992 8.26918 16.2108 8.11314 16.4744L8.65095 16.7928ZM8.62234 16.8411L8.08453 16.5227L8.08453 16.5227L8.62234 16.8411ZM8.98502 10.6877L9.17603 11.2828V11.2828L8.98502 10.6877ZM9.35827 2.33638L11.3472 2.89119L11.6831 1.68716L9.69414 1.13234L9.35827 2.33638ZM11.8881 3.2527C14.0432 5.91128 15.424 7.9453 16.5975 10.5238L17.7352 10.0059C16.5019 7.29605 15.0515 5.17007 12.8591 2.46555L11.8881 3.2527ZM11.6406 9.76108C11.7122 10.4073 11.9212 11.1781 12.428 11.7282L13.3473 10.8812C13.1029 10.6159 12.9422 10.1574 12.883 9.62351L11.6406 9.76108ZM10.9513 7.09207C11.1149 7.3052 11.2285 7.45336 11.3082 7.56407C11.3969 7.68723 11.4059 7.71403 11.3987 7.69598L12.5604 7.23442C12.5037 7.09183 12.4075 6.95149 12.3227 6.83379C12.229 6.70363 12.1012 6.53719 11.9428 6.33086L10.9513 7.09207ZM12.883 9.62351C12.8056 8.9245 12.7469 8.39424 12.7014 8.02357C12.6786 7.83868 12.6584 7.68692 12.64 7.57079C12.6259 7.482 12.6032 7.34213 12.5604 7.23442L11.3987 7.69598C11.3807 7.65054 11.3862 7.64498 11.4054 7.76644C11.4203 7.86055 11.4384 7.99497 11.4607 8.17607C11.5051 8.53739 11.5628 9.05841 11.6406 9.76108L12.883 9.62351ZM6.74411 2.53038C6.44393 2.85621 6.16019 3.1607 5.97563 3.45159C5.76849 3.77808 5.64906 4.14185 5.7249 4.57675L6.95631 4.36202C6.94731 4.3104 6.94347 4.25941 7.03112 4.12126C7.14135 3.94752 7.33162 3.73751 7.66344 3.37733L6.74411 2.53038ZM16.5975 10.5238C17.0928 11.6119 17.431 12.3597 17.5982 12.9822C17.7562 13.57 17.7459 13.993 17.5693 14.4357L18.7303 14.8989C19.0303 14.147 19.015 13.4381 18.8054 12.6579C18.6052 11.9125 18.2134 11.0564 17.7352 10.0059L16.5975 10.5238ZM14.8104 17.4625C15.8073 17.1342 16.6389 16.8632 17.2723 16.5103C17.9463 16.1348 18.4305 15.6502 18.7303 14.8989L17.5693 14.4357C17.3924 14.8789 17.1286 15.1595 16.664 15.4183C16.1589 15.6997 15.4614 15.9321 14.4195 16.2752L14.8104 17.4625ZM9.17041 6.22936C9.54841 6.16696 9.79838 6.12608 9.98145 6.10913C10.1796 6.09078 10.1922 6.11383 10.1475 6.09543L10.6234 4.93958C10.3669 4.83395 10.0894 4.84379 9.86622 4.86445C9.62799 4.88651 9.32546 4.93684 8.9668 4.99606L9.17041 6.22936ZM8.05631 16.5617C7.32324 17.3178 6.21621 17.7161 5.0761 17.7055C3.93612 17.6949 2.84102 17.2764 2.12764 16.502L1.20829 17.349C2.19885 18.4242 3.64871 18.9423 5.06449 18.9555C6.48014 18.9686 7.93968 18.4777 8.95375 17.4318L8.05631 16.5617ZM14.4195 16.2752C12.4764 16.9149 10.8294 16.9735 8.87853 16.2107L8.42336 17.3749C10.6873 18.26 12.6376 18.1779 14.8104 17.4625L14.4195 16.2752ZM9.16015 17.1595L9.18876 17.1112L8.11314 16.4744L8.08453 16.5227L9.16015 17.1595ZM8.95375 17.4318C9.03856 17.3444 9.10615 17.2508 9.16016 17.1595L8.08453 16.5227C8.07212 16.5437 8.06214 16.5557 8.05631 16.5617L8.95375 17.4318ZM13.2385 10.7875C12.3586 10.1905 10.6037 9.51179 8.79401 10.0927L9.17603 11.2828C10.4981 10.8585 11.8516 11.3571 12.5368 11.8219L13.2385 10.7875ZM8.79401 10.0927C7.93231 10.3692 7.09098 10.9231 6.35578 11.8542L7.33679 12.6288C7.92705 11.8814 8.5643 11.4792 9.17603 11.2828L8.79401 10.0927ZM9.41386 10.2331C8.33123 9.21197 6.78833 8.73915 5.29827 8.75512C3.8083 8.77109 2.27743 9.27697 1.2249 10.3349L2.11104 11.2165C2.88071 10.4429 4.06855 10.0184 5.31166 10.0051C6.55467 9.99173 7.75919 10.3907 8.55619 11.1424L9.41386 10.2331ZM10.1475 6.09543C10.2123 6.12211 10.3191 6.20717 10.4777 6.41718C10.5516 6.51496 10.623 6.62058 10.7023 6.7381C10.7772 6.84928 10.8633 6.97746 10.9513 7.09207L11.9428 6.33086C11.8828 6.2528 11.8193 6.15889 11.7388 6.03943C11.6625 5.92632 11.5726 5.79277 11.4751 5.66372C11.2911 5.42006 11.015 5.10081 10.6234 4.93958L10.1475 6.09543ZM11.3472 2.89119C11.4799 2.9282 11.5543 2.94951 11.609 2.96862C11.6334 2.97717 11.6469 2.98292 11.6539 2.98621C11.6572 2.98778 11.659 2.98877 11.6598 2.98918C11.6602 2.9894 11.6604 2.98952 11.6604 2.98957C11.6605 2.98959 11.6605 2.98961 11.6605 2.98961C11.6605 2.98962 11.6605 2.98962 11.6605 2.98962C11.6605 2.98963 11.6606 2.98964 11.6606 2.98966C11.6606 2.98968 11.6607 2.98971 11.6607 2.98977C11.6609 2.98989 11.6612 2.99012 11.6617 2.99052C11.6627 2.9913 11.6648 2.99295 11.6681 2.99591C11.675 3.00209 11.6867 3.01342 11.7055 3.03399C11.7471 3.07938 11.7988 3.14261 11.8881 3.2527L12.8591 2.46555C12.7116 2.28352 12.5585 2.08556 12.3525 1.94859C12.1432 1.80953 11.9026 1.74839 11.6831 1.68716L11.3472 2.89119ZM9.69414 1.13234C8.93685 0.921096 8.33498 1.08789 7.84022 1.43796C7.41362 1.7398 7.03458 2.21509 6.74411 2.53038L7.66344 3.37733C8.05754 2.94956 8.27906 2.6587 8.56221 2.45837C8.77719 2.30625 8.99425 2.23483 9.35827 2.33638L9.69414 1.13234ZM5.7249 4.57675C5.87825 5.45617 6.66559 5.88433 7.28121 6.0758C7.92946 6.27743 8.66478 6.31284 9.17041 6.22936L8.9668 4.99606C8.65815 5.04701 8.11957 5.02749 7.65245 4.8822C7.15269 4.72677 6.98317 4.51604 6.95631 4.36202L5.7249 4.57675Z" fill="#DDF988"/>
</svg>
