<svg width="30" height="30" viewBox="0 0 30 30" fill="none" xmlns="http://www.w3.org/2000/svg">
<path d="M22.5039 14.998C22.5039 13.2722 21.1048 11.873 19.3789 11.873C17.653 11.873 16.2539 13.2722 16.2539 14.998" stroke="#F8F8F8" stroke-width="1.46342" stroke-linecap="round"/>
<path d="M7.5 3.75V15M10.625 3.125V9.375M13.75 2.5V9.375" stroke="#F8F8F8" stroke-width="1.46342" stroke-linecap="round" stroke-linejoin="round"/>
<path d="M5.00781 5.625L7.50782 5.23438M25.0079 2.5L16.8829 3.76953M5.00781 8.75L7.50782 8.59375M25.0079 7.5L16.8829 8.00781" stroke="#F8F8F8" stroke-width="1.46342" stroke-linecap="round" stroke-linejoin="round"/>
<path d="M6.14322 14.998H23.8647C25.8683 14.998 26.6023 15.4615 26.1024 17.4757C25.2206 21.0288 22.7239 21.9113 20.417 24.2305C19.8563 24.7942 20.7287 25.6271 20.7292 26.2471C20.7301 27.4143 19.62 27.498 18.7357 27.498H11.2722C10.3879 27.498 9.27777 27.4143 9.27869 26.2471C9.27918 25.6401 10.1254 24.7679 9.59088 24.2305C7.28401 21.9113 4.78734 21.0288 3.90551 17.4757C3.4056 15.4615 4.13962 14.998 6.14322 14.998Z" stroke="#F8F8F8" stroke-width="1.46342" stroke-linejoin="round"/>
</svg>
