<svg width="30" height="30" viewBox="0 0 30 30" fill="none" xmlns="http://www.w3.org/2000/svg">
<path d="M12.5 11.569C9.50788 9.94794 6.3507 7.14285 3.75 2.5M14.5194 5.52376C11.9756 3.85437 8.87178 4.55206 7.58673 7.08209C6.30168 9.61212 7.32205 13.0164 9.86579 14.6858C12.1687 16.1971 17.2091 17.7598 21.25 13.4312C17.4632 11.8186 17.0631 7.19314 14.5194 5.52376Z" stroke="#F8F8F8" stroke-width="1.875" stroke-linecap="round" stroke-linejoin="round"/>
<path d="M5 13.75C4.20116 14.3386 3.75 15.0067 3.75 15.715C3.75 18.0815 8.7868 20 15 20C21.2132 20 26.25 18.0815 26.25 15.715C26.25 15.0067 25.7988 14.3386 25 13.75" stroke="#F8F8F8" stroke-width="1.875" stroke-linecap="round"/>
<path d="M26.25 16.25C26.25 20.7208 23.117 24.6434 19.7439 26.8528C19.0503 27.3071 18.2255 27.5 17.3963 27.5H12.6037C11.7745 27.5 10.9497 27.3071 10.2561 26.8528C6.883 24.6434 3.75 20.7208 3.75 16.25" stroke="#F8F8F8" stroke-width="1.875" stroke-linecap="round"/>
</svg>
