<svg width="18" height="16" viewBox="0 0 18 16" fill="none" xmlns="http://www.w3.org/2000/svg">
<g clip-path="url(#clip0_8357_14944)">
<path d="M17.669 0.486357L17.6669 14.6211L16.4025 13.7482V4.66308L15.5383 5.95785C15.5834 6.05297 15.6263 6.14918 15.6665 6.2443C16.0536 7.15966 16.2498 8.13155 16.2498 9.13333C16.2498 10.1351 16.0536 11.107 15.6665 12.0224C15.3361 12.804 14.8778 13.5172 14.3049 14.1423L14.2729 14.1776H12.3726L12.6199 13.9835C12.815 13.8302 13.0036 13.6628 13.1808 13.4856C14.3435 12.3235 14.9838 10.7776 14.9838 9.13333C14.9838 8.4816 14.8838 7.844 14.6865 7.23358L9.77705 14.5885V12.2262L9.79553 12.199L14.05 5.86979C13.8043 5.47788 13.5119 5.11206 13.1808 4.78049C12.1796 3.7798 10.8642 3.15361 9.46505 3.01011L9.46124 15.0625L8.83451 16.0007L8.20833 15.0625L8.20724 13.0519L8.20398 3.01011C6.80485 3.15361 5.48943 3.7798 4.48819 4.78049C4.15716 5.11206 3.86473 5.47843 3.61904 5.86979L7.89198 12.2262V14.5885L2.98252 7.23358C2.78521 7.844 2.68574 8.4816 2.68574 9.13333C2.68574 10.7776 3.32606 12.3235 4.48819 13.4856C4.66539 13.6623 4.85401 13.8297 5.04915 13.9835L5.29647 14.1776H3.39618L3.36411 14.1423C2.79119 13.5172 2.33297 12.804 2.00248 12.0224C1.61547 11.107 1.41924 10.1351 1.41924 9.13333C1.41924 8.13155 1.61547 7.15966 2.00248 6.2443C2.04271 6.14864 2.08619 6.05243 2.13076 5.95785L1.26704 4.66308V13.7482L0.00217425 14.6211L0 0.486357L2.85859 4.73864C3.07982 4.43859 3.32606 4.15214 3.59294 3.88525C4.27457 3.20362 5.06817 2.66876 5.952 2.29479C6.67005 1.99094 7.42723 1.80395 8.20344 1.73818V1.46477C6.60428 1.53761 5.04643 1.89038 3.57446 2.5133C3.13581 2.69865 2.70259 2.90955 2.28785 3.13894L2.20034 3.18731L1.49316 2.1328L1.59535 2.07519C2.07423 1.80612 2.57377 1.56098 3.08145 1.34682C4.90565 0.574958 6.84127 0.183594 8.83451 0.183594C10.8278 0.183594 12.7634 0.574958 14.5876 1.34682C15.0953 1.56098 15.5948 1.80612 16.0737 2.07519L16.1764 2.1328L15.4687 3.18731L15.3812 3.13894C14.9664 2.90955 14.5332 2.69865 14.0946 2.5133C12.6237 1.89092 11.0664 1.53815 9.46559 1.46477V1.73818C10.2423 1.80395 10.999 1.99094 11.7176 2.29479C12.6009 2.66876 13.3945 3.20362 14.0761 3.88525C14.343 4.15159 14.5892 4.43859 14.8104 4.73864L17.669 0.486357Z" fill="#F8F8F8"/>
</g>
<defs>
<clipPath id="clip0_8357_14944">
<rect width="17.669" height="15.8171" fill="white" transform="translate(0 0.183594)"/>
</clipPath>
</defs>
</svg>
