<svg width="358" height="120" viewBox="0 0 358 120" fill="none" xmlns="http://www.w3.org/2000/svg">
<g clip-path="url(#clip0_7536_10181)">
<rect width="358" height="120" rx="12" fill="url(#paint0_radial_7536_10181)"/>
<path fill-rule="evenodd" clip-rule="evenodd" d="M133.13 49.6914C123.224 50.4295 122.705 51.0333 122.065 62.4589C121.426 51.0285 120.902 50.4295 111 49.6914C120.906 48.9533 121.426 48.3495 122.065 36.9238C122.705 48.3542 123.228 48.9533 133.13 49.6914Z" fill="#F8F8F8" fill-opacity="0.8" style="mix-blend-mode:plus-lighter"/>
<path fill-rule="evenodd" clip-rule="evenodd" d="M266 32.8833C249.438 34.1172 248.569 35.1269 247.5 54.2294C246.431 35.1188 245.556 34.1172 229 32.8833C245.562 31.6493 246.431 30.6397 247.5 11.5371C248.569 30.6477 249.444 31.6493 266 32.8833Z" fill="#F8F8F8" fill-opacity="0.8" style="mix-blend-mode:plus-lighter"/>
<g filter="url(#filter0_f_7536_10181)">
<path fill-rule="evenodd" clip-rule="evenodd" d="M198 38.0766C187.257 38.877 186.694 39.5319 186 51.9228C185.306 39.5267 184.739 38.877 174 38.0766C184.743 37.2762 185.306 36.6213 186 24.2305C186.694 36.6265 187.261 37.2762 198 38.0766Z" fill="#F8F8F8" fill-opacity="0.8" style="mix-blend-mode:plus-lighter"/>
</g>
<g filter="url(#filter1_f_7536_10181)">
<path fill-rule="evenodd" clip-rule="evenodd" d="M229 54.7434C222.835 55.2027 222.512 55.5786 222.114 62.6899C221.715 55.5756 221.39 55.2027 215.227 54.7434C221.392 54.284 221.715 53.9081 222.114 46.7969C222.512 53.9111 222.837 54.284 229 54.7434Z" fill="#DEDEDE" fill-opacity="0.5" style="mix-blend-mode:plus-lighter"/>
</g>
<g filter="url(#filter2_f_7536_10181)">
<path fill-rule="evenodd" clip-rule="evenodd" d="M139.47 103.025C132.837 103.519 132.489 103.924 132.061 111.574C131.633 103.92 131.282 103.519 124.652 103.025C131.285 102.531 131.633 102.127 132.061 94.4766C132.489 102.13 132.84 102.531 139.47 103.025Z" fill="#DEDEDE" fill-opacity="0.5" style="mix-blend-mode:plus-lighter"/>
</g>
<g filter="url(#filter3_f_7536_10181)">
<path fill-rule="evenodd" clip-rule="evenodd" d="M119.817 84.2399C113.185 84.7341 112.837 85.1384 112.409 92.7884C111.98 85.1352 111.63 84.7341 105 84.2399C111.633 83.7457 111.98 83.3414 112.409 75.6914C112.837 83.3446 113.187 83.7457 119.817 84.2399Z" fill="#DEDEDE" fill-opacity="0.5" style="mix-blend-mode:plus-lighter"/>
</g>
<g filter="url(#filter4_f_7536_10181)">
<path fill-rule="evenodd" clip-rule="evenodd" d="M205.087 85.4349C193.41 86.305 192.797 87.0168 192.043 100.485C191.289 87.0111 190.673 86.305 179 85.4349C190.677 84.5649 191.289 83.8531 192.043 70.3848C192.797 83.8587 193.414 84.5649 205.087 85.4349Z" fill="#DEDEDE" fill-opacity="0.5" style="mix-blend-mode:plus-lighter"/>
</g>
<g filter="url(#filter5_f_7536_10181)">
<path fill-rule="evenodd" clip-rule="evenodd" d="M168.409 20.9282C148.977 22.376 147.959 23.5604 146.704 45.9717C145.45 23.551 144.423 22.376 125 20.9282C144.431 19.4805 145.45 18.296 146.704 -4.11523C147.959 18.3054 148.986 19.4805 168.409 20.9282Z" fill="#DEDEDE" fill-opacity="0.5" style="mix-blend-mode:plus-lighter"/>
</g>
<g filter="url(#filter6_f_7536_10181)">
<path fill-rule="evenodd" clip-rule="evenodd" d="M258.409 96.5825C238.977 98.0303 237.959 99.2147 236.704 121.626C235.45 99.2053 234.423 98.0303 215 96.5825C234.431 95.1348 235.45 93.9503 236.704 71.5391C237.959 93.9597 238.986 95.1348 258.409 96.5825Z" fill="#DEDEDE" fill-opacity="0.5" style="mix-blend-mode:plus-lighter"/>
</g>
<g filter="url(#filter7_f_7536_10181)">
<path fill-rule="evenodd" clip-rule="evenodd" d="M59.4696 41.8091C45.8303 42.8252 45.1155 43.6567 44.2348 59.3877C43.3541 43.6501 42.6335 42.8252 29 41.8091C42.6392 40.7929 43.3541 39.9615 44.2348 24.2305C45.1155 39.9681 45.836 40.7929 59.4696 41.8091Z" fill="#DEDEDE" fill-opacity="0.5" style="mix-blend-mode:plus-lighter"/>
</g>
<path d="M23.332 12.1877C23.2694 11.8654 23.1539 11.5478 22.9822 11.2474C22.5716 10.5293 21.9161 10.043 21.1837 9.83398C21.2968 10.7537 20.8686 11.6951 20.0238 12.1877C19.1789 12.6803 18.1575 12.5841 17.4253 12.0252C17.2383 12.7702 17.3276 13.5866 17.7382 14.3048C18.2934 15.2759 19.2966 15.8233 20.332 15.834" stroke="#DEDEDE" stroke-opacity="0.5" stroke-width="0.75" style="mix-blend-mode:plus-lighter"/>
<path d="M27.6654 16.1667C27.6654 14.1416 26.0237 12.5 23.9987 12.5C22.0809 12.5 20.5069 13.9724 20.3456 15.8485C18.6547 16.0094 17.332 17.4336 17.332 19.1667C17.332 21.0076 18.8244 22.5 20.6654 22.5H27.6654C29.3222 22.5 30.6654 21.1569 30.6654 19.5C30.6654 17.8431 29.3222 16.5 27.6654 16.5L27.6504 16.5C27.6603 16.3902 27.6654 16.279 27.6654 16.1667Z" fill="#DEDEDE" fill-opacity="0.5" style="mix-blend-mode:plus-lighter"/>
<path d="M27.6504 16.5C27.6554 16.5 27.6604 16.5 27.6654 16.5C29.3222 16.5 30.6654 17.8431 30.6654 19.5C30.6654 21.1569 29.3222 22.5 27.6654 22.5H20.6654C18.8244 22.5 17.332 21.0076 17.332 19.1667C17.332 17.4336 18.6547 16.0094 20.3456 15.8485M27.6504 16.5C27.6603 16.3902 27.6654 16.279 27.6654 16.1667C27.6654 14.1416 26.0237 12.5 23.9987 12.5C22.0809 12.5 20.5069 13.9724 20.3456 15.8485M27.6504 16.5C27.5823 17.2563 27.2844 17.9464 26.8273 18.5M20.3456 15.8485C20.4509 15.8385 20.5575 15.8333 20.6654 15.8333C21.4159 15.8333 22.1085 16.0814 22.6657 16.5" stroke="#181716" stroke-width="0.75" stroke-linecap="round" stroke-linejoin="round" style="mix-blend-mode:darken"/>
<path d="M36.9092 21V11.1357H43.1709V12.4551H38.4404V15.333H42.918V16.6182H38.4404V19.6807H43.1709V21H36.9092ZM46.541 21L43.9502 13.8086H45.5225L47.3271 19.5576H47.3613L49.166 13.8086H50.7041L48.127 21H46.541ZM54.3477 21.1436C52.2354 21.1436 50.957 19.7012 50.957 17.4316V17.4248C50.957 15.1758 52.2559 13.6719 54.2725 13.6719C56.2891 13.6719 57.5264 15.1211 57.5264 17.2812V17.7803H52.4336C52.4609 19.1406 53.2061 19.9336 54.3818 19.9336C55.2568 19.9336 55.8379 19.4824 56.0225 18.9424L56.043 18.8877H57.4443L57.4307 18.9629C57.1982 20.1045 56.0908 21.1436 54.3477 21.1436ZM54.2793 14.8818C53.3223 14.8818 52.584 15.5312 52.4541 16.7344H56.0635C55.9404 15.4902 55.2432 14.8818 54.2793 14.8818ZM58.6748 21V13.8086H60.1514V14.8955H60.1855C60.5615 14.1641 61.2998 13.6719 62.3867 13.6719C63.9658 13.6719 64.875 14.6904 64.875 16.3447V21H63.3916V16.625C63.3916 15.5449 62.8857 14.9365 61.8604 14.9365C60.8213 14.9365 60.1514 15.6885 60.1514 16.8096V21H58.6748ZM67.1035 12.7012C66.625 12.7012 66.2422 12.3184 66.2422 11.8535C66.2422 11.3818 66.625 10.999 67.1035 10.999C67.5889 10.999 67.9648 11.3818 67.9648 11.8535C67.9648 12.3184 67.5889 12.7012 67.1035 12.7012ZM66.3652 21V13.8086H67.8418V21H66.3652ZM69.3662 21V13.8086H70.8428V14.8955H70.877C71.2529 14.1641 71.9912 13.6719 73.0781 13.6719C74.6572 13.6719 75.5664 14.6904 75.5664 16.3447V21H74.083V16.625C74.083 15.5449 73.5771 14.9365 72.5518 14.9365C71.5127 14.9365 70.8428 15.6885 70.8428 16.8096V21H69.3662ZM80.1465 23.5361C78.3008 23.5361 77.1318 22.6816 76.9131 21.5811L76.9062 21.5195H78.3691L78.3965 21.5742C78.5947 22.0322 79.2168 22.3467 80.1396 22.3467C81.3154 22.3467 81.9648 21.7178 81.9648 20.7129V19.7285H81.9307C81.5205 20.5078 80.7002 21.0068 79.668 21.0068C77.8633 21.0068 76.6738 19.5918 76.6738 17.3496V17.3428C76.6738 15.0869 77.877 13.6719 79.7021 13.6719C80.7139 13.6719 81.5068 14.2188 81.9307 15.0322H81.9648V13.8086H83.4482V20.8018C83.4482 22.4424 82.1768 23.5361 80.1465 23.5361ZM80.085 19.8037C81.2129 19.8037 81.9648 18.8535 81.9648 17.3701V17.3633C81.9648 15.8867 81.2061 14.9365 80.085 14.9365C78.916 14.9365 78.1846 15.8799 78.1846 17.3633V17.3701C78.1846 18.874 78.916 19.8037 80.085 19.8037ZM87.6729 21V19.9541L93.0869 12.4893V12.4551H87.8369V11.1357H94.9531V12.1816L89.5664 19.6465V19.6807H95.083V21H87.6729ZM99.417 21.1436C97.3525 21.1436 96.0059 19.7148 96.0059 17.4043V17.3906C96.0059 15.0938 97.3662 13.6719 99.4102 13.6719C101.461 13.6719 102.828 15.0869 102.828 17.3906V17.4043C102.828 19.7217 101.475 21.1436 99.417 21.1436ZM99.4238 19.9062C100.579 19.9062 101.317 18.9902 101.317 17.4043V17.3906C101.317 15.8184 100.565 14.9092 99.4102 14.9092C98.2754 14.9092 97.5166 15.8184 97.5166 17.3906V17.4043C97.5166 18.9971 98.2686 19.9062 99.4238 19.9062ZM103.97 21V13.8086H105.446V14.8955H105.48C105.856 14.1641 106.595 13.6719 107.682 13.6719C109.261 13.6719 110.17 14.6904 110.17 16.3447V21H108.687V16.625C108.687 15.5449 108.181 14.9365 107.155 14.9365C106.116 14.9365 105.446 15.6885 105.446 16.8096V21H103.97ZM114.668 21.1436C112.556 21.1436 111.277 19.7012 111.277 17.4316V17.4248C111.277 15.1758 112.576 13.6719 114.593 13.6719C116.609 13.6719 117.847 15.1211 117.847 17.2812V17.7803H112.754C112.781 19.1406 113.526 19.9336 114.702 19.9336C115.577 19.9336 116.158 19.4824 116.343 18.9424L116.363 18.8877H117.765L117.751 18.9629C117.519 20.1045 116.411 21.1436 114.668 21.1436ZM114.6 14.8818C113.643 14.8818 112.904 15.5312 112.774 16.7344H116.384C116.261 15.4902 115.563 14.8818 114.6 14.8818Z" fill="#DEDEDE" fill-opacity="0.5" style="mix-blend-mode:plus-lighter"/>
<g clip-path="url(#clip1_7536_10181)">
<path d="M17.8301 74.2285H18.416C18.6634 74.2285 18.8636 74.1536 19.0166 74.0039C19.1696 73.8542 19.2461 73.6523 19.2461 73.3984V71.9531C19.3047 71.9662 19.4007 71.9776 19.5342 71.9873C19.6676 71.997 19.793 72.0019 19.9102 72.0019H38.8359C38.9531 72.0019 39.0801 71.997 39.2168 71.9873C39.3535 71.9776 39.4479 71.9662 39.5 71.9531V73.3984C39.5 73.6523 39.5765 73.8542 39.7295 74.0039C39.8825 74.1536 40.0827 74.2285 40.3301 74.2285H40.916C41.1699 74.2285 41.3718 74.1536 41.5215 74.0039C41.6712 73.8542 41.7461 73.6523 41.7461 73.3984V66.709C41.7461 65.778 41.5003 65.0667 41.0088 64.5752C40.5173 64.0837 39.8027 63.8379 38.8652 63.8379H19.8809C18.9499 63.8379 18.237 64.0837 17.7422 64.5752C17.2474 65.0667 17 65.778 17 66.709V73.3984C17 73.6523 17.0749 73.8542 17.2246 74.0039C17.3743 74.1536 17.5762 74.2285 17.8301 74.2285ZM18.9531 70.5762C18.7318 70.5762 18.6211 70.4492 18.6211 70.1953V66.4844C18.6211 66.1133 18.735 65.8171 18.9629 65.5957C19.1908 65.3744 19.4935 65.2637 19.8711 65.2637H38.8848C39.2624 65.2637 39.5635 65.3744 39.7881 65.5957C40.0127 65.8171 40.125 66.1133 40.125 66.4844V70.1953C40.125 70.4492 40.0143 70.5762 39.793 70.5762H18.9531ZM19.5391 64.043H22.1074V62.0312C22.1074 61.582 22.2311 61.2354 22.4785 60.9912C22.7259 60.7471 23.0807 60.625 23.543 60.625H26.9707C27.4264 60.625 27.778 60.7471 28.0254 60.9912C28.2728 61.2354 28.3965 61.582 28.3965 62.0312V64.043H30.3496V62.0312C30.3496 61.582 30.4733 61.2354 30.7207 60.9912C30.9681 60.7471 31.3197 60.625 31.7754 60.625H35.2031C35.6654 60.625 36.0202 60.7471 36.2676 60.9912C36.515 61.2354 36.6387 61.582 36.6387 62.0312V64.043H39.207V60.4883C39.207 59.5833 38.9726 58.9014 38.5039 58.4424C38.0352 57.9834 37.3613 57.7539 36.4824 57.7539H22.2637C21.3913 57.7539 20.7191 57.9834 20.2471 58.4424C19.7751 58.9014 19.5391 59.5833 19.5391 60.4883V64.043Z" fill="#F8F8F8" fill-opacity="0.8" style="mix-blend-mode:plus-lighter"/>
</g>
<path d="M53.0449 73V58.9082H58.5137C61.3945 58.9082 63.2109 60.5781 63.2109 63.2246V63.2441C63.2109 65.1582 62.166 66.6816 60.4766 67.2578L63.6309 73H61.1113L58.2402 67.5898H55.2324V73H53.0449ZM55.2324 65.793H58.2988C59.9883 65.793 60.9551 64.8652 60.9551 63.2637V63.2441C60.9551 61.6816 59.9199 60.7441 58.2402 60.7441H55.2324V65.793ZM69.4219 73.2051C66.4043 73.2051 64.5781 71.1445 64.5781 67.9023V67.8926C64.5781 64.6797 66.4336 62.5312 69.3145 62.5312C72.1953 62.5312 73.9629 64.6016 73.9629 67.6875V68.4004H66.6875C66.7266 70.3438 67.791 71.4766 69.4707 71.4766C70.7207 71.4766 71.5508 70.832 71.8145 70.0605L71.8438 69.9824H73.8457L73.8262 70.0898C73.4941 71.7207 71.9121 73.2051 69.4219 73.2051ZM69.3242 64.2598C67.957 64.2598 66.9023 65.1875 66.7168 66.9062H71.873C71.6973 65.1289 70.7012 64.2598 69.3242 64.2598ZM79.4512 73.2051C76.8828 73.2051 75.3789 71.9355 75.1641 70.0605L75.1543 69.9727H77.2441L77.2637 70.0703C77.459 71.0176 78.1621 71.5742 79.4609 71.5742C80.7305 71.5742 81.4922 71.0469 81.4922 70.2168V70.207C81.4922 69.543 81.1211 69.1621 80.0176 68.8984L78.3379 68.5176C76.3848 68.0684 75.418 67.1309 75.418 65.6367V65.627C75.418 63.791 77.0195 62.5312 79.3828 62.5312C81.8145 62.5312 83.2793 63.8887 83.3867 65.6367L83.3965 65.7539H81.4141L81.4043 65.6855C81.2773 64.7871 80.5742 64.1621 79.3828 64.1621C78.25 64.1621 77.5371 64.6992 77.5371 65.5195V65.5293C77.5371 66.1641 77.957 66.5938 79.0605 66.8574L80.7305 67.2383C82.8301 67.7266 83.6309 68.5566 83.6309 70.0312V70.041C83.6309 71.916 81.873 73.2051 79.4512 73.2051ZM88.875 73.2051C86.8438 73.2051 85.8672 72.3457 85.8672 70.2949V64.4062H84.3926V62.7266H85.8672V60.0508H88.0254V62.7266H89.9492V64.4062H88.0254V70.168C88.0254 71.2129 88.4941 71.5254 89.3828 71.5254C89.6074 71.5254 89.793 71.5059 89.9492 71.4863V73.1172C89.7051 73.1562 89.3047 73.2051 88.875 73.2051Z" fill="#F8F8F8" fill-opacity="0.8" style="mix-blend-mode:plus-lighter"/>
<g filter="url(#filter8_b_7536_10181)">
<rect x="16" y="89" width="60.9981" height="18" rx="4" fill="#0F0F0F" fill-opacity="0.66"/>
<rect x="16.25" y="89.25" width="60.4981" height="17.5" rx="3.75" stroke="#DDF988" stroke-opacity="0.4" stroke-width="0.5"/>
<g clip-path="url(#clip2_7536_10181)">
<circle cx="25.9992" cy="97.9992" r="4.99921" stroke="#DDF988" stroke-width="0.749881"/>
<path d="M26 96V97.9997L26.9998 98.9995" stroke="#DDF988" stroke-width="0.749881" stroke-linecap="round" stroke-linejoin="round"/>
</g>
<path d="M34.8906 102V100.98L37.6621 98.1445C38.0449 97.7578 38.3418 97.4395 38.5527 97.1895C38.7676 96.9355 38.918 96.7129 39.0039 96.5215C39.0898 96.3262 39.1328 96.1211 39.1328 95.9062V95.8887C39.1328 95.6309 39.0762 95.4004 38.9629 95.1973C38.8496 94.9941 38.6875 94.8359 38.4766 94.7227C38.2656 94.6055 38.0137 94.5469 37.7207 94.5469C37.4238 94.5469 37.1621 94.6094 36.9355 94.7344C36.709 94.8555 36.5332 95.0254 36.4082 95.2441C36.2832 95.4629 36.2207 95.7188 36.2207 96.0117L36.2148 96.0352L34.8086 96.0293L34.8027 96.0117C34.8027 95.4844 34.9297 95.0195 35.1836 94.6172C35.4375 94.2148 35.7891 93.9004 36.2383 93.6738C36.6875 93.4473 37.207 93.334 37.7969 93.334C38.3438 93.334 38.8301 93.4375 39.2559 93.6445C39.6855 93.8516 40.0215 94.1367 40.2637 94.5C40.5059 94.8633 40.627 95.2832 40.627 95.7598V95.7773C40.627 96.0938 40.5664 96.4043 40.4453 96.709C40.3242 97.0098 40.1172 97.3398 39.8242 97.6992C39.5352 98.0586 39.1348 98.4863 38.623 98.9824L36.5312 101.016L36.9297 100.348V101.016L36.5312 100.752H40.7559V102H34.8906ZM45.1244 102.211C44.5502 102.211 44.0443 102.104 43.6068 101.889C43.1693 101.674 42.8216 101.383 42.5638 101.016C42.306 100.645 42.1576 100.229 42.1185 99.7676L42.1127 99.6914H43.5013L43.513 99.7324C43.5521 99.9629 43.6439 100.172 43.7884 100.359C43.933 100.547 44.1205 100.697 44.3509 100.811C44.5814 100.92 44.8412 100.975 45.1302 100.975C45.4584 100.975 45.7474 100.902 45.9974 100.758C46.2513 100.613 46.4486 100.414 46.5892 100.16C46.7298 99.9023 46.8002 99.6094 46.8002 99.2812V99.2695C46.8002 98.9414 46.7279 98.6523 46.5834 98.4023C46.4427 98.1484 46.2474 97.9512 45.9974 97.8105C45.7513 97.666 45.4662 97.5938 45.142 97.5938C44.9037 97.5938 44.683 97.6289 44.4798 97.6992C44.2806 97.7695 44.1029 97.875 43.9466 98.0156C43.8685 98.082 43.7962 98.1562 43.7298 98.2383C43.6634 98.3164 43.6048 98.4023 43.5541 98.4961H42.2591L42.6693 93.5449H47.7435V94.7812H43.847L43.6068 97.3594H43.7123C43.8295 97.168 43.9779 97.0059 44.1576 96.873C44.3373 96.7363 44.5423 96.6328 44.7728 96.5625C45.0033 96.4883 45.2494 96.4512 45.5111 96.4512C46.0423 96.4512 46.5111 96.5723 46.9173 96.8145C47.3275 97.0527 47.6498 97.3828 47.8841 97.8047C48.1185 98.2227 48.2357 98.7012 48.2357 99.2402V99.252C48.2357 99.8379 48.1029 100.354 47.8373 100.799C47.5755 101.24 47.2103 101.586 46.7416 101.836C46.2728 102.086 45.7337 102.211 45.1244 102.211ZM52.4786 102V93.5449H54.213L56.7559 100.055H56.8555L59.3927 93.5449H61.127V102H59.7677V95.9883H59.0294L60.5294 93.7793L57.3184 102H56.2872L53.0821 93.7793L54.5821 95.9883H53.838V102H52.4786ZM62.7182 102V95.5957H64.1713V102H62.7182ZM63.4506 94.5234C63.2123 94.5234 63.0073 94.4395 62.8354 94.2715C62.6635 94.1035 62.5776 93.9023 62.5776 93.668C62.5776 93.4258 62.6635 93.2227 62.8354 93.0586C63.0073 92.8906 63.2123 92.8066 63.4506 92.8066C63.6889 92.8066 63.892 92.8906 64.06 93.0586C64.2319 93.2227 64.3178 93.4258 64.3178 93.668C64.3178 93.9023 64.2319 94.1035 64.06 94.2715C63.892 94.4395 63.6889 94.5234 63.4506 94.5234ZM65.6102 102V95.5957H67.0691V96.5801H67.1688C67.3211 96.2324 67.5516 95.9609 67.8602 95.7656C68.1688 95.5703 68.5535 95.4727 69.0145 95.4727C69.7293 95.4727 70.2762 95.6797 70.6551 96.0938C71.034 96.5078 71.2234 97.0957 71.2234 97.8574V102H69.7645V98.1973C69.7645 97.6973 69.659 97.3223 69.448 97.0723C69.241 96.8223 68.9168 96.6973 68.4754 96.6973C68.1863 96.6973 67.9363 96.7617 67.7254 96.8906C67.5145 97.0195 67.3523 97.2012 67.2391 97.4355C67.1258 97.6699 67.0691 97.9473 67.0691 98.2676V102H65.6102Z" fill="#DDF988"/>
</g>
<g style="mix-blend-mode:plus-lighter" filter="url(#filter9_f_7536_10181)">
<rect x="276" y="30" width="60" height="60.5092" rx="12.3901" fill="#5ECC7B" fill-opacity="0.7"/>
<path fill-rule="evenodd" clip-rule="evenodd" d="M316.846 51.7751C317.456 52.3349 317.498 53.2838 316.938 53.8945L303.419 68.6425C303.142 68.9441 302.755 69.1197 302.346 69.1286C301.937 69.1374 301.542 68.9789 301.252 68.6896L295.107 62.5446C294.522 61.9588 294.522 61.009 295.107 60.4232C295.693 59.8374 296.643 59.8374 297.229 60.4232L302.266 65.4605L314.726 51.8673C315.286 51.2566 316.235 51.2153 316.846 51.7751Z" fill="#1C1C1E"/>
</g>
<rect x="276" y="30" width="60" height="60.5092" rx="12.3901" fill="url(#paint1_linear_7536_10181)"/>
<path fill-rule="evenodd" clip-rule="evenodd" d="M316.846 51.7751C317.456 52.3349 317.498 53.2838 316.938 53.8945L303.419 68.6425C303.142 68.9441 302.755 69.1197 302.346 69.1286C301.937 69.1374 301.542 68.9789 301.252 68.6896L295.107 62.5446C294.522 61.9588 294.522 61.009 295.107 60.4232C295.693 59.8374 296.643 59.8374 297.229 60.4232L302.266 65.4605L314.726 51.8673C315.286 51.2566 316.235 51.2153 316.846 51.7751Z" fill="#1C1C1E"/>
</g>
<defs>
<filter id="filter0_f_7536_10181" x="172" y="22.2305" width="28" height="31.6914" filterUnits="userSpaceOnUse" color-interpolation-filters="sRGB">
<feFlood flood-opacity="0" result="BackgroundImageFix"/>
<feBlend mode="normal" in="SourceGraphic" in2="BackgroundImageFix" result="shape"/>
<feGaussianBlur stdDeviation="1" result="effect1_foregroundBlur_7536_10181"/>
</filter>
<filter id="filter1_f_7536_10181" x="208.966" y="40.536" width="26.2952" height="28.4143" filterUnits="userSpaceOnUse" color-interpolation-filters="sRGB">
<feFlood flood-opacity="0" result="BackgroundImageFix"/>
<feBlend mode="normal" in="SourceGraphic" in2="BackgroundImageFix" result="shape"/>
<feGaussianBlur stdDeviation="3.13043" result="effect1_foregroundBlur_7536_10181"/>
</filter>
<filter id="filter2_f_7536_10181" x="122.148" y="91.9722" width="19.8251" height="22.1064" filterUnits="userSpaceOnUse" color-interpolation-filters="sRGB">
<feFlood flood-opacity="0" result="BackgroundImageFix"/>
<feBlend mode="normal" in="SourceGraphic" in2="BackgroundImageFix" result="shape"/>
<feGaussianBlur stdDeviation="1.25217" result="effect1_foregroundBlur_7536_10181"/>
</filter>
<filter id="filter3_f_7536_10181" x="98.7391" y="69.4305" width="27.3381" height="29.6194" filterUnits="userSpaceOnUse" color-interpolation-filters="sRGB">
<feFlood flood-opacity="0" result="BackgroundImageFix"/>
<feBlend mode="normal" in="SourceGraphic" in2="BackgroundImageFix" result="shape"/>
<feGaussianBlur stdDeviation="3.13043" result="effect1_foregroundBlur_7536_10181"/>
</filter>
<filter id="filter4_f_7536_10181" x="176.628" y="68.0132" width="30.829" height="34.8427" filterUnits="userSpaceOnUse" color-interpolation-filters="sRGB">
<feFlood flood-opacity="0" result="BackgroundImageFix"/>
<feBlend mode="normal" in="SourceGraphic" in2="BackgroundImageFix" result="shape"/>
<feGaussianBlur stdDeviation="1.18577" result="effect1_foregroundBlur_7536_10181"/>
</filter>
<filter id="filter5_f_7536_10181" x="116.882" y="-12.2335" width="59.6467" height="66.3244" filterUnits="userSpaceOnUse" color-interpolation-filters="sRGB">
<feFlood flood-opacity="0" result="BackgroundImageFix"/>
<feBlend mode="normal" in="SourceGraphic" in2="BackgroundImageFix" result="shape"/>
<feGaussianBlur stdDeviation="4.05913" result="effect1_foregroundBlur_7536_10181"/>
</filter>
<filter id="filter6_f_7536_10181" x="206.882" y="63.4208" width="59.6467" height="66.3244" filterUnits="userSpaceOnUse" color-interpolation-filters="sRGB">
<feFlood flood-opacity="0" result="BackgroundImageFix"/>
<feBlend mode="normal" in="SourceGraphic" in2="BackgroundImageFix" result="shape"/>
<feGaussianBlur stdDeviation="4.05913" result="effect1_foregroundBlur_7536_10181"/>
</filter>
<filter id="filter7_f_7536_10181" x="25.2435" y="20.4739" width="37.9818" height="42.6693" filterUnits="userSpaceOnUse" color-interpolation-filters="sRGB">
<feFlood flood-opacity="0" result="BackgroundImageFix"/>
<feBlend mode="normal" in="SourceGraphic" in2="BackgroundImageFix" result="shape"/>
<feGaussianBlur stdDeviation="1.87826" result="effect1_foregroundBlur_7536_10181"/>
</filter>
<filter id="filter8_b_7536_10181" x="-18" y="55" width="129" height="86" filterUnits="userSpaceOnUse" color-interpolation-filters="sRGB">
<feFlood flood-opacity="0" result="BackgroundImageFix"/>
<feGaussianBlur in="BackgroundImageFix" stdDeviation="17"/>
<feComposite in2="SourceAlpha" operator="in" result="effect1_backgroundBlur_7536_10181"/>
<feBlend mode="normal" in="SourceGraphic" in2="effect1_backgroundBlur_7536_10181" result="shape"/>
</filter>
<filter id="filter9_f_7536_10181" x="252" y="6" width="108" height="108.51" filterUnits="userSpaceOnUse" color-interpolation-filters="sRGB">
<feFlood flood-opacity="0" result="BackgroundImageFix"/>
<feBlend mode="normal" in="SourceGraphic" in2="BackgroundImageFix" result="shape"/>
<feGaussianBlur stdDeviation="12" result="effect1_foregroundBlur_7536_10181"/>
</filter>
<radialGradient id="paint0_radial_7536_10181" cx="0" cy="0" r="1" gradientUnits="userSpaceOnUse" gradientTransform="translate(-2.30053e-06 18.4615) rotate(17.9733) scale(329.058 232.741)">
<stop stop-color="#1E202D"/>
<stop offset="0.377344" stop-color="#2D3644"/>
<stop offset="0.646476" stop-color="#3D4A59"/>
<stop offset="1" stop-color="#1E2428"/>
</radialGradient>
<linearGradient id="paint1_linear_7536_10181" x1="306" y1="30" x2="306" y2="90.5092" gradientUnits="userSpaceOnUse">
<stop stop-color="#5ECC7B"/>
<stop offset="1" stop-color="#26C24F"/>
</linearGradient>
<clipPath id="clip0_7536_10181">
<rect width="358" height="120" rx="12" fill="white"/>
</clipPath>
<clipPath id="clip1_7536_10181">
<rect width="24.7461" height="16.4941" fill="white" transform="translate(17 57.7539)"/>
</clipPath>
<clipPath id="clip2_7536_10181">
<rect width="11.9981" height="11.9981" fill="white" transform="translate(20 92)"/>
</clipPath>
</defs>
</svg>
