<svg width="32" height="32" viewBox="0 0 32 32" fill="none" xmlns="http://www.w3.org/2000/svg">
<path d="M5.21656 16H24.1194C26.2565 16 27.0395 16.4943 26.5063 18.6428C25.5656 22.4328 22.9025 23.3741 20.4419 25.8479C19.8438 26.4492 20.7744 27.3376 20.7749 27.999C20.7759 29.244 19.5917 29.3333 18.6485 29.3333H10.6874C9.7442 29.3333 8.56007 29.244 8.56106 27.999C8.56157 27.3515 9.46424 26.4211 8.89406 25.8479C6.4334 23.3741 3.77029 22.4328 2.82968 18.6428C2.29644 16.4943 3.07939 16 5.21656 16Z" stroke="#F8F8F8" stroke-width="2" stroke-linejoin="round"/>
<path d="M24.668 15.9987C24.668 13.6106 22.1348 11.983 20.0013 12.9216M4.66797 15.9987C4.66797 14.2744 5.95936 12.8537 7.62144 12.6639C6.53602 10.2098 8.83639 7.45744 11.3865 8.02158M21.7239 12.6423C22.7657 10.2416 20.5593 7.44422 17.9494 8.02158C17.3144 4.43551 12.0215 4.43551 11.3865 8.02158M11.3865 8.02158C12.178 8.19667 12.8641 8.65498 13.3346 9.28562" stroke="#F8F8F8" stroke-width="2" stroke-linecap="round" stroke-linejoin="round"/>
<path d="M22.668 12L29.3346 4" stroke="#F8F8F8" stroke-width="2" stroke-linecap="round" stroke-linejoin="round"/>
<path d="M21.3359 7.99935L24.0026 2.66602" stroke="#F8F8F8" stroke-width="2" stroke-linecap="round" stroke-linejoin="round"/>
</svg>
