<svg width="12" height="12" viewBox="0 0 12 12" fill="none" xmlns="http://www.w3.org/2000/svg">
<g clip-path="url(#clip0_8071_14531)">
<path d="M1 5C1.38984 3.09205 2.83459 1.56466 4.70309 1.04488C4.85993 1.00125 4.93835 0.979439 4.9806 1.02618C5.02284 1.07292 4.99172 1.15021 4.92949 1.30478L4.5 2.25M7 1C8.90795 1.38984 10.4353 2.83459 10.9551 4.70309C10.9987 4.85993 11.0206 4.93835 10.9738 4.9806C10.9271 5.02284 10.8498 4.99172 10.6952 4.92949L9.75 4.5M11 7C10.6102 8.90795 9.16541 10.4353 7.29691 10.9551C7.14007 10.9987 7.06165 11.0206 7.0194 10.9738C6.97716 10.9271 7.00828 10.8498 7.07051 10.6952L7.5 9.75M5 11C3.09205 10.6102 1.56466 9.16541 1.04488 7.29691C1.00125 7.14007 0.979439 7.06165 1.02618 7.0194C1.07292 6.97716 1.15021 7.00828 1.30478 7.07051L2.25 7.5" stroke="#DDF988" stroke-width="0.75" stroke-linecap="round"/>
</g>
<defs>
<clipPath id="clip0_8071_14531">
<rect width="12" height="12" fill="white"/>
</clipPath>
</defs>
</svg>
