<svg width="20" height="20" viewBox="0 0 20 20" fill="none" xmlns="http://www.w3.org/2000/svg">
<path d="M15.919 15L6.63713 15C4.19225 15 2.96981 15 2.22469 14.069C0.81041 12.3019 2.42189 7.60317 3.39806 5.83333C3.729 7.83333 7.1359 7.77778 8.37692 7.5C7.55007 5.83432 8.65385 5.27844 9.20575 5.00049L9.20673 5C11.668 7.91667 16.9303 9.50332 18.22 12.6824C18.7771 14.0556 17.1898 15 15.919 15Z" stroke="#DDF988" stroke-width="1.25" stroke-linecap="round" stroke-linejoin="round"/>
<path d="M1.66797 11.668C5.13852 12.8591 7.27711 13.2048 10.0194 12.3379C10.8503 12.0752 11.2658 11.9439 11.5248 11.9617C11.7837 11.9795 12.312 12.2259 13.3686 12.7186C14.6882 13.334 16.4989 13.6882 18.3346 12.7999" stroke="#DDF988" stroke-width="1.25" stroke-linejoin="round"/>
<path d="M11.2539 7.91797L12.5039 6.66797" stroke="#DDF988" stroke-width="1.25" stroke-linecap="round" stroke-linejoin="round"/>
<path d="M12.918 9.16797L14.168 7.91797" stroke="#DDF988" stroke-width="1.25" stroke-linecap="round" stroke-linejoin="round"/>
</svg>
