<svg width="30" height="31" viewBox="0 0 30 31" fill="none" xmlns="http://www.w3.org/2000/svg">
<path fill-rule="evenodd" clip-rule="evenodd" d="M12.0504 8.5589C12.6241 6.95307 14.4686 5.91621 16.3932 6.31838C18.2265 6.70146 19.3663 8.22702 19.2565 9.81145C18.3506 9.91321 17.4967 10.1904 16.73 10.6084C15.4612 9.47622 13.8395 8.73123 12.0504 8.5589ZM10.5291 8.55187C10.5312 8.54172 10.5334 8.53156 10.5359 8.52141C11.1794 5.88732 13.9664 4.31624 16.6925 4.8859C19.1307 5.39539 20.8358 7.47715 20.7246 9.80197C24.0069 10.1272 26.6134 12.7488 26.9437 16.0409C27.1508 16.0705 27.3508 16.1315 27.5335 16.2355C27.8243 16.401 28.0234 16.6489 28.1318 16.9348C28.3295 17.4563 28.2029 18.0305 28.0488 18.4533C27.8829 18.9086 27.6213 19.3615 27.343 19.7315C27.0804 20.0807 26.7355 20.4467 26.367 20.631L23.4159 22.1078C23.0877 22.2721 23.0425 22.301 23.0083 22.3312C22.6369 22.6593 22.3973 23.0916 22.0848 23.6554C22.0346 23.746 21.9826 23.8399 21.9278 23.9374C21.561 24.5897 21.078 25.371 20.1845 25.8496C19.7927 26.0594 19.3861 26.1497 18.9329 26.1919C18.5025 26.2321 17.9829 26.2321 17.3567 26.2321H17.3235H12.6791H12.6459C12.0197 26.2321 11.5001 26.2321 11.0697 26.1919C10.6166 26.1497 10.2099 26.0594 9.81814 25.8496C8.92464 25.371 8.44166 24.5897 8.07487 23.9374C8.02006 23.8399 7.96799 23.7459 7.9178 23.6554C7.60532 23.0916 7.36573 22.6593 6.99438 22.3312C6.96017 22.301 6.91494 22.2721 6.58672 22.1078L3.63558 20.631C3.26713 20.4467 2.92223 20.0807 2.65961 19.7315C2.38136 19.3615 2.11976 18.9086 1.95382 18.4533C1.79975 18.0305 1.67313 17.4563 1.87082 16.9348C1.97922 16.6489 2.17832 16.401 2.46909 16.2355C2.6492 16.133 2.84604 16.0723 3.0499 16.0423C3.38958 12.0665 6.55508 8.89734 10.5291 8.55187ZM11.2514 9.98403C7.76128 9.98403 4.88814 12.6257 4.52242 16.0187H8.06084C8.03455 15.9432 8.02026 15.8622 8.02026 15.7777C8.02026 13.9139 9.39654 12.2683 11.252 12.2683C13.1074 12.2683 14.4837 13.9139 14.4837 15.7777V16.0187H17.9804C17.6147 12.6257 14.7416 9.98403 11.2514 9.98403ZM13.0203 16.0187H9.44308C9.46938 15.9432 9.48367 15.8622 9.48367 15.7777C9.48367 14.5733 10.346 13.7317 11.252 13.7317C12.158 13.7317 13.0203 14.5733 13.0203 15.7777V16.0187ZM3.80525 17.4821H13.0203V18C13.0203 18.4041 13.3479 18.7317 13.752 18.7317C14.1561 18.7317 14.4837 18.4041 14.4837 18V17.4821H18.6976C18.7154 17.4834 18.7333 17.484 18.7515 17.484C18.7696 17.484 18.7875 17.4834 18.8053 17.4821H26.6158C26.6895 17.4821 26.7386 17.4888 26.769 17.4953C26.7702 17.5163 26.77 17.5458 26.7661 17.5852C26.7566 17.6804 26.7277 17.8043 26.6738 17.9522C26.5654 18.2498 26.3803 18.5768 26.1734 18.8519C25.9509 19.1478 25.7721 19.2923 25.7121 19.3223L22.761 20.7991L22.708 20.8256C22.4656 20.9465 22.2353 21.0614 22.0393 21.2345C21.462 21.7445 21.0882 22.4267 20.787 22.9761C20.7405 23.061 20.6957 23.1427 20.6522 23.2201C20.2977 23.8505 19.987 24.2952 19.4935 24.5596C19.333 24.6455 19.1363 24.7032 18.797 24.7349C18.4425 24.7679 17.9913 24.7687 17.3235 24.7687H12.6791C12.0113 24.7687 11.5601 24.7679 11.2057 24.7349C10.8663 24.7032 10.6696 24.6455 10.5091 24.5596C10.0156 24.2952 9.70493 23.8505 9.35046 23.2201C9.30699 23.1428 9.26227 23.0612 9.21582 22.9765L9.2156 22.9761L9.2156 22.9761C8.91447 22.4267 8.54058 21.7445 7.96332 21.2345C7.76736 21.0614 7.53704 20.9465 7.29468 20.8256L7.29465 20.8256L7.29463 20.8256L7.24161 20.7991L4.29048 19.3223C4.23052 19.2923 4.05174 19.1478 3.8292 18.8519C3.62229 18.5768 3.43724 18.2498 3.32879 17.9522C3.2749 17.8043 3.24607 17.6804 3.23654 17.5852C3.23259 17.5458 3.23244 17.5163 3.23359 17.4953C3.264 17.4888 3.31312 17.4821 3.38683 17.4821H3.69756C3.71534 17.4834 3.7333 17.484 3.75141 17.484C3.76952 17.484 3.78747 17.4834 3.80525 17.4821ZM17.7691 11.7236C18.7035 12.9328 19.3088 14.4092 19.4509 16.0187H25.468C25.1127 13.3135 22.8122 11.2314 20.0349 11.2314C19.226 11.2314 18.4593 11.4075 17.7691 11.7236Z" fill="#F8F8F8"/>
</svg>
