<svg width="20" height="21" viewBox="0 0 20 21" fill="none" xmlns="http://www.w3.org/2000/svg">
<path d="M11.4371 3.36754L12.9036 6.32479C13.1036 6.73645 13.6368 7.13131 14.0868 7.20692L16.7448 7.65219C18.4447 7.93783 18.8446 9.18122 17.6197 10.4078L15.5533 12.4913C15.2033 12.8442 15.0117 13.5247 15.12 14.012L15.7116 16.5911C16.1782 18.6327 15.1034 19.4224 13.3119 18.3554L10.8205 16.8684C10.3705 16.5995 9.62896 16.5995 9.17068 16.8684L6.67929 18.3554C4.89615 19.4224 3.81294 18.6242 4.27955 16.5911L4.87115 14.012C4.97947 13.5247 4.78783 12.8442 4.43787 12.4913L2.37143 10.4078C1.1549 9.18122 1.54652 7.93783 3.24633 7.65219L5.90437 7.20692C6.34599 7.13131 6.87926 6.73645 7.07924 6.32479L8.54575 3.36754C9.34566 1.7629 10.6455 1.7629 11.4371 3.36754Z" stroke="#DDF988" stroke-width="1.5" stroke-linecap="round" stroke-linejoin="round"/>
</svg>
