<svg width="14" height="14" viewBox="0 0 14 14" fill="none" xmlns="http://www.w3.org/2000/svg">
<g clip-path="url(#clip0_8482_2577)">
<path d="M9.89128 6.98275C9.89128 8.58908 8.58908 9.89128 6.98275 9.89128C5.37641 9.89128 4.07422 8.58908 4.07422 6.98275C4.07422 5.37641 5.37641 4.07422 6.98275 4.07422" stroke="#DDF988" stroke-width="0.872559" stroke-linecap="round"/>
<path d="M8.14453 1.28042C7.76862 1.20412 7.37955 1.16406 6.98112 1.16406C3.76845 1.16406 1.16406 3.76845 1.16406 6.98112C1.16406 10.1938 3.76845 12.7982 6.98112 12.7982C10.1938 12.7982 12.7982 10.1938 12.7982 6.98112C12.7982 6.58269 12.7581 6.19362 12.6818 5.81771" stroke="#DDF988" stroke-width="0.872559" stroke-linecap="round"/>
<path d="M6.67197 6.67262C6.5016 6.843 6.5016 7.11924 6.67197 7.28962C6.84235 7.45999 7.11859 7.45999 7.28896 7.28962L6.67197 6.67262ZM11.4543 2.50729L11.0322 2.61743C11.072 2.77024 11.1914 2.88957 11.3442 2.92944L11.4543 2.50729ZM11.1539 1.35607L10.7318 1.46621V1.46621L11.1539 1.35607ZM10.6441 1.27462L10.9526 1.58312L10.6441 1.27462ZM9.97547 1.94322L9.66697 1.63473V1.63473L9.97547 1.94322ZM9.46909 3.57889L9.04694 3.68904V3.68904L9.46909 3.57889ZM12.6055 2.80766L12.4954 3.22981L12.6055 2.80766ZM12.687 3.31751L12.3785 3.00902L12.687 3.31751ZM12.0184 3.98612L12.3269 4.29461L12.0184 3.98612ZM10.3827 4.4925L10.2726 4.91465L10.3827 4.4925ZM9.34964 3.99496L6.67197 6.67262L7.28896 7.28962L9.96663 4.61195L9.34964 3.99496ZM11.8764 2.39714L11.5761 1.24592L10.7318 1.46621L11.0322 2.61743L11.8764 2.39714ZM10.3356 0.966125L9.66697 1.63473L10.284 2.25172L10.9526 1.58312L10.3356 0.966125ZM9.04694 3.68904L9.23599 4.4136L10.0803 4.19331L9.89123 3.46875L9.04694 3.68904ZM11.3442 2.92944L12.4954 3.22981L12.7157 2.38551L11.5644 2.08514L11.3442 2.92944ZM12.3785 3.00902L11.7099 3.67762L12.3269 4.29461L12.9955 3.62601L12.3785 3.00902ZM10.4928 4.07035L9.76828 3.88131L9.54799 4.7256L10.2726 4.91465L10.4928 4.07035ZM11.7099 3.67762C11.3486 4.03886 10.8698 4.16871 10.4928 4.07035L10.2726 4.91465C10.9934 5.10272 11.781 4.8405 12.3269 4.29461L11.7099 3.67762ZM12.4954 3.22981C12.4656 3.22203 12.4316 3.20306 12.4044 3.17168C12.3785 3.1418 12.3669 3.1102 12.363 3.08573C12.3553 3.03733 12.3748 3.01267 12.3785 3.00902L12.9955 3.62601C13.1771 3.44432 13.2637 3.19284 13.2246 2.94809C13.1842 2.69504 13.0062 2.46131 12.7157 2.38551L12.4954 3.22981ZM9.66697 1.63473C9.12109 2.18061 8.85887 2.96823 9.04694 3.68904L9.89123 3.46875C9.79288 3.09178 9.92273 2.61296 10.284 2.25172L9.66697 1.63473ZM11.5761 1.24592C11.5003 0.955424 11.2665 0.777392 11.0135 0.736971C10.7687 0.697873 10.5173 0.784439 10.3356 0.966125L10.9526 1.58312C10.9489 1.58677 10.9243 1.60634 10.8759 1.59861C10.8514 1.5947 10.8198 1.58304 10.7899 1.55716C10.7585 1.52997 10.7396 1.49601 10.7318 1.46621L11.5761 1.24592Z" fill="#DDF988"/>
</g>
<defs>
<clipPath id="clip0_8482_2577">
<rect width="13.9609" height="13.9609" fill="white"/>
</clipPath>
</defs>
</svg>
