<svg width="20" height="20" viewBox="0 0 20 20" fill="none" xmlns="http://www.w3.org/2000/svg">
<path d="M15.0039 1.66406V3.33073M5.00391 1.66406V3.33073" stroke="#1C1C1E" stroke-width="1.25" stroke-linecap="round" stroke-linejoin="round"/>
<path d="M9.99756 10.832H10.005M9.99756 14.1654H10.005M13.3272 10.832H13.3346M6.66797 10.832H6.67545M6.66797 14.1654H6.67545" stroke="#1C1C1E" stroke-width="1.66667" stroke-linecap="round" stroke-linejoin="round"/>
<path d="M2.91797 6.66406H17.0846" stroke="#1C1C1E" stroke-width="1.25" stroke-linecap="round" stroke-linejoin="round"/>
<path d="M2.08594 10.1988C2.08594 6.56771 2.08594 4.75216 3.12937 3.62413C4.1728 2.49609 5.85218 2.49609 9.21094 2.49609H10.7943C14.153 2.49609 15.8324 2.49609 16.8758 3.62413C17.9193 4.75216 17.9193 6.56771 17.9193 10.1988V10.6267C17.9193 14.2578 17.9193 16.0734 16.8758 17.2014C15.8324 18.3294 14.153 18.3294 10.7943 18.3294H9.21094C5.85218 18.3294 4.1728 18.3294 3.12937 17.2014C2.08594 16.0734 2.08594 14.2578 2.08594 10.6267V10.1988Z" stroke="#1C1C1E" stroke-width="1.25" stroke-linecap="round" stroke-linejoin="round"/>
<path d="M2.50391 6.66406H17.5039" stroke="#1C1C1E" stroke-width="1.25" stroke-linecap="round" stroke-linejoin="round"/>
</svg>
