<svg width="127" height="69" viewBox="0 0 127 69" fill="none" xmlns="http://www.w3.org/2000/svg">
<rect y="59.1641" width="3.64138" height="13.8372" rx="1.82069" fill="#303030" fill-opacity="0.3" style="mix-blend-mode:color-burn"/>
<rect x="9.46875" y="49.6953" width="3.64138" height="23.3048" rx="1.82069" fill="#303030" fill-opacity="0.3" style="mix-blend-mode:color-burn"/>
<rect x="18.9336" y="38.7695" width="3.64138" height="34.229" rx="1.82069" fill="#303030" fill-opacity="0.3" style="mix-blend-mode:color-burn"/>
<rect x="28.4023" y="38.7695" width="3.64138" height="34.229" rx="1.82069" fill="#303030" fill-opacity="0.3" style="mix-blend-mode:color-burn"/>
<rect x="37.8672" y="31.4883" width="3.64138" height="41.5117" rx="1.82069" fill="#303030" fill-opacity="0.3" style="mix-blend-mode:color-burn"/>
<rect x="47.3359" y="34.4023" width="3.64138" height="38.5986" rx="1.82069" fill="#303030" fill-opacity="0.3" style="mix-blend-mode:color-burn"/>
<rect x="56.8047" y="27.1172" width="3.64138" height="45.8814" rx="1.82069" fill="#303030" fill-opacity="0.3" style="mix-blend-mode:color-burn"/>
<rect x="66.2734" y="31.4883" width="3.64138" height="41.5117" rx="1.82069" fill="#303030" fill-opacity="0.3" style="mix-blend-mode:color-burn"/>
<rect x="75.7383" y="27.1172" width="3.64138" height="45.8814" rx="1.82069" fill="#303030" fill-opacity="0.3" style="mix-blend-mode:color-burn"/>
<rect x="85.207" y="21.293" width="3.64138" height="51.7076" rx="1.82069" fill="#303030" fill-opacity="0.3" style="mix-blend-mode:color-burn"/>
<rect x="94.6758" y="18.3789" width="3.64138" height="54.6207" rx="1.82069" fill="#303030" fill-opacity="0.3" style="mix-blend-mode:color-burn"/>
<rect x="104.141" y="11.0977" width="3.64138" height="61.9035" rx="1.82069" fill="#303030" fill-opacity="0.3" style="mix-blend-mode:color-burn"/>
<rect x="113.609" y="3.08594" width="3.64138" height="69.9145" rx="1.82069" fill="#303030" fill-opacity="0.3" style="mix-blend-mode:color-burn"/>
<rect x="123.078" y="0.171875" width="3.64138" height="72.8276" rx="1.82069" fill="#303030" fill-opacity="0.3" style="mix-blend-mode:color-burn"/>
<rect x="32" y="14" width="77.8924" height="12" rx="3" fill="#5ECC7B"/>
<path d="M39.6437 16.3524L36.3783 20.1306C36.2786 20.3161 36.4473 20.5321 36.6515 20.4799L37.923 20.1553L38.6121 22.3416C38.926 23.3373 40.3349 23.3371 40.6486 22.3416L41.338 20.1551L42.638 20.4821C42.842 20.5334 43.0101 20.318 42.9104 20.1325L39.6437 16.3524Z" fill="black" fill-opacity="0.6"/>
<path d="M46.897 22.0651C46.6744 22.0651 46.5204 21.9076 46.5204 21.6747V17.8367H46.5032L45.6507 18.4324C45.5754 18.4872 45.5069 18.5111 45.4213 18.5111C45.2535 18.5111 45.1337 18.3913 45.1337 18.2167C45.1337 18.09 45.1816 18.001 45.3254 17.9017L46.3526 17.1724C46.5614 17.0252 46.6744 16.9944 46.8388 16.9944C47.1093 16.9944 47.2702 17.1553 47.2702 17.4224V21.6747C47.2702 21.9076 47.1161 22.0651 46.897 22.0651ZM48.828 22C48.5952 22 48.4651 21.8699 48.4651 21.6782C48.4651 21.5275 48.5096 21.4453 48.6774 21.2776L50.2215 19.7163C50.8652 19.059 51.0227 18.8056 51.0227 18.4119C51.0227 17.9428 50.6597 17.6004 50.1633 17.6004C49.6771 17.6004 49.3416 17.8503 49.1704 18.3331C49.1019 18.4872 49.0129 18.5796 48.8246 18.5796C48.6089 18.5796 48.4856 18.4461 48.4856 18.2544C48.4856 18.1962 48.4925 18.1448 48.5062 18.0934C48.6123 17.573 49.1841 16.967 50.1667 16.967C51.1117 16.967 51.7793 17.5491 51.7793 18.3639C51.7793 18.9254 51.5157 19.3226 50.6837 20.1546L49.5059 21.3358V21.3529H51.5568C51.7656 21.3529 51.8957 21.483 51.8957 21.6782C51.8957 21.8699 51.7656 22 51.5568 22H48.828ZM53.4501 22.0651C53.3029 22.0651 53.1797 21.9726 53.1797 21.8288C53.1797 21.7535 53.2036 21.6953 53.2447 21.6371L54.8025 19.3876L56.333 17.1622C56.422 17.0321 56.4871 16.9944 56.6069 16.9944C56.7473 16.9944 56.8637 17.0937 56.8637 17.2306C56.8637 17.2991 56.8466 17.3573 56.802 17.4189L55.2921 19.6068L53.7138 21.9007C53.6282 22.024 53.5631 22.0651 53.4501 22.0651ZM53.3851 19.5588C52.7517 19.5588 52.3648 19.0726 52.3648 18.2749C52.3648 17.4806 52.7585 17.0012 53.3851 17.0012C54.0151 17.0012 54.4054 17.4806 54.4054 18.2749C54.4054 19.0692 54.0185 19.5588 53.3851 19.5588ZM53.3851 19.1137C53.6658 19.1137 53.8302 18.8227 53.8302 18.2749C53.8302 17.7305 53.6624 17.4498 53.3851 17.4498C53.1078 17.4498 52.94 17.7339 52.94 18.2783C52.94 18.8227 53.1043 19.1137 53.3851 19.1137ZM56.6617 22.0582C56.0317 22.0582 55.6414 21.5686 55.6414 20.7743C55.6414 19.98 56.0351 19.5006 56.6617 19.5006C57.2916 19.5006 57.682 19.9765 57.682 20.7743C57.682 21.5652 57.2951 22.0582 56.6617 22.0582ZM56.6617 21.6097C56.9424 21.6097 57.1102 21.3221 57.1102 20.7743C57.1102 20.2299 56.9424 19.9457 56.6617 19.9457C56.3843 19.9457 56.2166 20.2299 56.2166 20.7743C56.2166 21.3221 56.3843 21.6097 56.6617 21.6097ZM61.0065 22.0685C60.2977 22.0685 59.7773 21.7775 59.6061 21.3358C59.5822 21.281 59.5753 21.2296 59.5753 21.1817C59.5753 20.9968 59.7089 20.8873 59.8937 20.8873C60.017 20.8873 60.1231 20.9455 60.2156 21.0824C60.4005 21.3734 60.6162 21.5035 61.0441 21.5035C61.4653 21.5035 61.7494 21.3221 61.7494 21.0242C61.7494 20.788 61.6091 20.6613 61.2222 20.5688L60.6538 20.4353C59.9554 20.271 59.613 19.9286 59.613 19.415C59.613 18.7645 60.1779 18.3331 61.0339 18.3331C61.6844 18.3331 62.2185 18.6652 62.3212 19.0898C62.3281 19.1309 62.3349 19.1651 62.3349 19.1993C62.3349 19.3637 62.2322 19.4732 62.0473 19.4732C61.9275 19.4732 61.8213 19.4321 61.7494 19.3157C61.5885 19.0418 61.3694 18.898 61.0065 18.898C60.6093 18.898 60.3354 19.0932 60.3354 19.3739C60.3354 19.5999 60.51 19.7574 60.8901 19.8464L61.4481 19.9765C62.2048 20.1511 62.4958 20.4216 62.4958 20.9557C62.4958 21.6234 61.8967 22.0685 61.0065 22.0685ZM63.4613 17.8538C63.2251 17.8538 63.0334 17.662 63.0334 17.4292C63.0334 17.193 63.2251 17.0081 63.4613 17.0081C63.701 17.0081 63.8927 17.193 63.8927 17.4292C63.8927 17.662 63.701 17.8538 63.4613 17.8538ZM63.4613 22.0651C63.2388 22.0651 63.0916 21.911 63.0916 21.6747V18.7268C63.0916 18.4872 63.2388 18.3331 63.4613 18.3331C63.6839 18.3331 63.8311 18.4872 63.8311 18.7268V21.6747C63.8311 21.911 63.6839 22.0651 63.4613 22.0651ZM64.9575 22.0651C64.7384 22.0651 64.5878 21.9178 64.5878 21.6747V18.7063C64.5878 18.4803 64.7247 18.3331 64.9404 18.3331C65.1527 18.3331 65.2999 18.4803 65.2999 18.7097V18.9939H65.317C65.5122 18.583 65.8888 18.3365 66.4435 18.3365C67.2378 18.3365 67.6932 18.8433 67.6932 19.6684V21.6747C67.6932 21.9178 67.5391 22.0651 67.32 22.0651C67.1043 22.0651 66.9502 21.9178 66.9502 21.6747V19.8122C66.9502 19.2712 66.6968 18.9734 66.1833 18.9734C65.6628 18.9734 65.3273 19.3431 65.3273 19.9012V21.6747C65.3273 21.9178 65.1732 22.0651 64.9575 22.0651ZM69.9495 22.0685C68.9189 22.0685 68.2478 21.3529 68.2478 20.2059C68.2478 19.0658 68.9155 18.3331 69.9426 18.3331C70.6376 18.3331 71.2334 18.7029 71.3909 19.2062C71.4114 19.2644 71.4251 19.326 71.4251 19.3774C71.4251 19.5657 71.2916 19.6821 71.1101 19.6821C70.9526 19.6821 70.8636 19.6205 70.7746 19.4561C70.5897 19.1137 70.3363 18.9494 69.9563 18.9494C69.3777 18.9494 69.0011 19.4321 69.0011 20.1991C69.0011 20.9831 69.3845 21.4488 69.9563 21.4488C70.3569 21.4488 70.6 21.2707 70.7746 20.9592C70.8773 20.7811 70.9561 20.7195 71.117 20.7195C71.2984 20.7195 71.432 20.8428 71.432 21.0276C71.432 21.0858 71.4183 21.1475 71.3909 21.2194C71.2026 21.7158 70.6171 22.0685 69.9495 22.0685ZM73.5924 22.0685C72.507 22.0685 71.8702 21.3803 71.8702 20.2162C71.8702 19.0726 72.5207 18.3331 73.541 18.3331C74.4997 18.3331 75.1605 19.0247 75.1605 20.0073C75.1605 20.247 75.0235 20.384 74.7941 20.384H72.6166V20.4011C72.6166 21.0585 72.9864 21.4693 73.5753 21.4693C73.9793 21.4693 74.2326 21.3289 74.5065 20.9557C74.5853 20.8633 74.6606 20.8256 74.7667 20.8256C74.9448 20.8256 75.0749 20.942 75.0749 21.1269C75.0749 21.1851 75.0543 21.2536 75.0235 21.3255C74.7873 21.798 74.2634 22.0685 73.5924 22.0685ZM72.62 19.867H74.4209C74.4038 19.302 74.0512 18.9288 73.5376 18.9288C73.0275 18.9288 72.6577 19.3055 72.62 19.867ZM77.5571 22.0651C77.3414 22.0651 77.1874 21.9178 77.1874 21.6747V17.3847C77.1874 17.1416 77.3414 16.9944 77.5571 16.9944C77.7728 16.9944 77.9269 17.1416 77.9269 17.3847V21.6747C77.9269 21.9178 77.7728 22.0651 77.5571 22.0651ZM79.7415 22.0616C79.0362 22.0616 78.5398 21.6234 78.5398 20.9763C78.5398 20.3463 79.026 19.9594 79.8785 19.9115L80.868 19.8533V19.5759C80.868 19.1754 80.5975 18.9357 80.1455 18.9357C79.7895 18.9357 79.5532 19.0624 79.3478 19.3911C79.2725 19.5006 79.1766 19.5486 79.0465 19.5486C78.8616 19.5486 78.7281 19.4253 78.7281 19.2404C78.7281 19.1651 78.7486 19.0829 78.7931 19.0007C78.9814 18.5933 79.5258 18.3331 80.1729 18.3331C81.046 18.3331 81.6041 18.7953 81.6041 19.5177V21.6919C81.6041 21.9247 81.4569 22.0651 81.248 22.0651C81.0426 22.0651 80.9022 21.9315 80.8954 21.7124V21.4077H80.8782C80.6694 21.8083 80.2106 22.0616 79.7415 22.0616ZM79.9435 21.4762C80.4605 21.4762 80.868 21.1201 80.868 20.651V20.3668L79.9778 20.4216C79.5361 20.4524 79.2862 20.6476 79.2862 20.9557C79.2862 21.2707 79.5498 21.4762 79.9435 21.4762ZM83.6515 22.0685C82.9428 22.0685 82.4224 21.7775 82.2512 21.3358C82.2272 21.281 82.2204 21.2296 82.2204 21.1817C82.2204 20.9968 82.3539 20.8873 82.5388 20.8873C82.662 20.8873 82.7682 20.9455 82.8606 21.0824C83.0455 21.3734 83.2612 21.5035 83.6892 21.5035C84.1103 21.5035 84.3945 21.3221 84.3945 21.0242C84.3945 20.788 84.2541 20.6613 83.8672 20.5688L83.2989 20.4353C82.6004 20.271 82.258 19.9286 82.258 19.415C82.258 18.7645 82.823 18.3331 83.6789 18.3331C84.3294 18.3331 84.8635 18.6652 84.9663 19.0898C84.9731 19.1309 84.98 19.1651 84.98 19.1993C84.98 19.3637 84.8772 19.4732 84.6924 19.4732C84.5725 19.4732 84.4664 19.4321 84.3945 19.3157C84.2336 19.0418 84.0144 18.898 83.6515 18.898C83.2544 18.898 82.9805 19.0932 82.9805 19.3739C82.9805 19.5999 83.1551 19.7574 83.5351 19.8464L84.0932 19.9765C84.8498 20.1511 85.1409 20.4216 85.1409 20.9557C85.1409 21.6234 84.5417 22.0685 83.6515 22.0685ZM85.9283 21.1372V18.9836H85.6681C85.4764 18.9836 85.36 18.8741 85.36 18.6926C85.36 18.5077 85.4764 18.3982 85.6681 18.3982H85.9283V17.864C85.9283 17.6278 86.0756 17.4703 86.3015 17.4703C86.5241 17.4703 86.6713 17.6278 86.6713 17.864V18.3982H87.0924C87.2842 18.3982 87.4006 18.5111 87.4006 18.6926C87.4006 18.8741 87.2842 18.9836 87.0924 18.9836H86.6713V20.9729C86.6713 21.2605 86.7706 21.3906 87.0377 21.4111L87.0959 21.4145C87.3081 21.4351 87.4143 21.5207 87.4143 21.6953C87.4143 21.9178 87.2431 22.0308 86.8802 22.0308H86.8425C86.2365 22.0308 85.9283 21.7329 85.9283 21.1372ZM90.4717 22.0651C90.2286 22.0651 90.0917 21.9521 90.0164 21.6919L89.1947 18.8604C89.1673 18.7782 89.157 18.7131 89.157 18.6515C89.157 18.4598 89.3008 18.3331 89.5165 18.3331C89.7014 18.3331 89.8109 18.4324 89.8589 18.6412L90.506 21.2331H90.5197L91.2044 18.6686C91.2558 18.4495 91.403 18.3331 91.629 18.3331C91.8515 18.3331 91.9953 18.4495 92.0467 18.6686L92.7349 21.2331H92.752L93.3991 18.6412C93.447 18.4324 93.5532 18.3331 93.738 18.3331C93.9537 18.3331 94.0941 18.4598 94.0941 18.6515C94.0941 18.7131 94.0839 18.7748 94.0599 18.8604L93.2382 21.6919C93.1663 21.9452 93.0156 22.0651 92.7725 22.0651C92.5157 22.0651 92.3719 21.9555 92.3035 21.6919L91.629 19.302H91.6119L90.9442 21.6919C90.8757 21.9452 90.7217 22.0651 90.4717 22.0651ZM96.1347 22.0685C95.0494 22.0685 94.4125 21.3803 94.4125 20.2162C94.4125 19.0726 95.0631 18.3331 96.0834 18.3331C97.042 18.3331 97.7028 19.0247 97.7028 20.0073C97.7028 20.247 97.5659 20.384 97.3365 20.384H95.1589V20.4011C95.1589 21.0585 95.5287 21.4693 96.1176 21.4693C96.5216 21.4693 96.775 21.3289 97.0489 20.9557C97.1276 20.8633 97.2029 20.8256 97.3091 20.8256C97.4871 20.8256 97.6172 20.942 97.6172 21.1269C97.6172 21.1851 97.5967 21.2536 97.5659 21.3255C97.3296 21.798 96.8058 22.0685 96.1347 22.0685ZM95.1623 19.867H96.9633C96.9462 19.302 96.5935 18.9288 96.0799 18.9288C95.5698 18.9288 95.2 19.3055 95.1623 19.867ZM99.8393 22.0685C98.7539 22.0685 98.1171 21.3803 98.1171 20.2162C98.1171 19.0726 98.7676 18.3331 99.7879 18.3331C100.747 18.3331 101.407 19.0247 101.407 20.0073C101.407 20.247 101.27 20.384 101.041 20.384H98.8635V20.4011C98.8635 21.0585 99.2333 21.4693 99.8221 21.4693C100.226 21.4693 100.48 21.3289 100.753 20.9557C100.832 20.8633 100.907 20.8256 101.014 20.8256C101.192 20.8256 101.322 20.942 101.322 21.1269C101.322 21.1851 101.301 21.2536 101.27 21.3255C101.034 21.798 100.51 22.0685 99.8393 22.0685ZM98.8669 19.867H100.668C100.651 19.302 100.298 18.9288 99.7845 18.9288C99.2743 18.9288 98.9046 19.3055 98.8669 19.867ZM102.38 22.0651C102.164 22.0651 102.01 21.9178 102.01 21.6747V17.3847C102.01 17.1416 102.164 16.9944 102.38 16.9944C102.595 16.9944 102.749 17.1416 102.749 17.3847V19.9354H102.756L104.253 18.4701C104.345 18.3708 104.424 18.3331 104.533 18.3331C104.715 18.3331 104.855 18.4735 104.855 18.6481C104.855 18.7542 104.824 18.8227 104.728 18.9117L103.616 19.9663L104.838 21.4796C104.917 21.5789 104.937 21.6473 104.937 21.7398C104.937 21.9281 104.79 22.0651 104.592 22.0651C104.455 22.0651 104.372 22.0205 104.273 21.8836L103.078 20.4045L102.749 20.7126V21.6747C102.749 21.9178 102.595 22.0651 102.38 22.0651Z" fill="black" fill-opacity="0.6"/>
</svg>
