<svg width="20" height="20" viewBox="0 0 20 20" fill="none" xmlns="http://www.w3.org/2000/svg">
<path d="M13.3346 6.66406C13.1315 7.27354 12.7135 7.74137 12.1218 8.00367C10.2214 8.84611 8.85002 10.2175 8.00757 12.1179C7.74528 12.7096 7.27745 13.1276 6.66797 13.3307" stroke="#DDF988" stroke-width="1.25" stroke-linejoin="round"/>
<path d="M2.66797 17.3307L1.66797 18.3307M17.3346 2.66406L18.3346 1.66406" stroke="#DDF988" stroke-width="1.25" stroke-linecap="round" stroke-linejoin="round"/>
<path d="M5.16167 11.6106L5.60361 11.1687L5.16167 11.6106ZM8.38809 14.837L7.94615 15.279L8.38809 14.837ZM6.45224 16.7729L6.89418 16.3309H6.89418L6.45224 16.7729ZM7.76939 17.2933L8.00857 17.8708L7.76939 17.2933ZM7.07094 17.2933L6.83176 17.8708L7.07094 17.2933ZM8.90855 15.4557L9.48598 15.2165H9.48598L8.90855 15.4557ZM8.90855 16.1542L9.48598 16.3934L8.90855 16.1542ZM3.84452 11.0901L3.60535 10.5127H3.60535L3.84452 11.0901ZM4.54297 11.0901L4.78215 10.5127H4.78215L4.54297 11.0901ZM2.70536 12.2293L2.12793 11.9901L2.70536 12.2293ZM2.70536 12.9278L2.12793 13.1669L2.70536 12.9278ZM5.80696 17.4182L6.2489 17.8601H6.2489L5.80696 17.4182ZM3.22582 17.4182L2.78388 17.8601H2.78388L3.22582 17.4182ZM2.58054 16.7729L3.02248 16.3309L3.02248 16.3309L2.58054 16.7729ZM4.51639 18.3307L4.51639 17.7057H4.51639L4.51639 18.3307ZM11.6145 5.15777L11.1726 5.59971L11.6145 5.15777ZM14.8409 8.38419L15.2829 7.94224L14.8409 8.38419ZM16.7768 6.44833L16.3348 6.89028V6.89028L16.7768 6.44833ZM17.2972 7.76549L17.8747 8.00466L17.2972 7.76549ZM17.2972 7.06704L17.8747 6.82786L17.2972 7.06704ZM15.4596 8.90465L15.2205 9.48207V9.48207L15.4596 8.90465ZM16.1581 8.90465L16.3973 9.48207L16.1581 8.90465ZM11.094 3.84062L10.5166 3.60144V3.60144L11.094 3.84062ZM11.094 4.53907L10.5166 4.77824V4.77824L11.094 4.53907ZM12.2332 2.70145L11.994 2.12403L12.2332 2.70145ZM12.9317 2.70145L13.1708 2.12403L12.9317 2.70145ZM17.4221 5.80305L17.864 6.24499V6.24499L17.4221 5.80305ZM17.4221 3.22192L17.864 2.77997V2.77997L17.4221 3.22192ZM16.7768 2.57663L16.3348 3.01857L16.3348 3.01857L16.7768 2.57663ZM18.3346 4.51248L17.7096 4.51248V4.51248L18.3346 4.51248ZM4.71973 12.0525L7.94615 15.279L8.83003 14.3951L5.60361 11.1687L4.71973 12.0525ZM6.89418 16.3309L3.66776 13.1045L2.78388 13.9884L6.0103 17.2148L6.89418 16.3309ZM7.94615 16.3309C7.78977 16.4873 7.69438 16.5822 7.61805 16.6488C7.54595 16.7117 7.52522 16.718 7.53021 16.7159L8.00857 17.8708C8.18127 17.7992 8.31955 17.6956 8.43972 17.5908C8.55564 17.4897 8.68575 17.3591 8.83003 17.2148L7.94615 16.3309ZM6.0103 17.2148C6.15458 17.3591 6.28469 17.4897 6.40062 17.5908C6.52078 17.6956 6.65906 17.7992 6.83176 17.8708L7.31012 16.7159C7.31512 16.718 7.29438 16.7117 7.22229 16.6488C7.14595 16.5822 7.05056 16.4873 6.89418 16.3309L6.0103 17.2148ZM7.53021 16.7159C7.45975 16.7451 7.38058 16.7451 7.31012 16.7159L6.83176 17.8708C7.20851 18.0268 7.63182 18.0268 8.00857 17.8708L7.53021 16.7159ZM7.94615 15.279C8.10253 15.4353 8.19744 15.5307 8.26402 15.6071C8.32691 15.6792 8.3332 15.6999 8.33113 15.6949L9.48598 15.2165C9.41444 15.0438 9.31084 14.9056 9.20602 14.7854C9.10491 14.6695 8.97432 14.5394 8.83003 14.3951L7.94615 15.279ZM8.83003 17.2148C8.97432 17.0705 9.10491 16.9404 9.20602 16.8245C9.31084 16.7043 9.41444 16.5661 9.48598 16.3934L8.33113 15.915C8.3332 15.91 8.32691 15.9307 8.26402 16.0028C8.19744 16.0792 8.10253 16.1746 7.94615 16.3309L8.83003 17.2148ZM8.33113 15.6949C8.36032 15.7654 8.36032 15.8445 8.33113 15.915L9.48598 16.3934C9.64203 16.0166 9.64203 15.5933 9.48598 15.2165L8.33113 15.6949ZM3.66776 12.0525C3.82414 11.8962 3.91953 11.8013 3.99587 11.7347C4.06796 11.6718 4.0887 11.6655 4.0837 11.6676L3.60535 10.5127C3.43264 10.5843 3.29436 10.6879 3.1742 10.7927C3.05827 10.8938 2.92817 11.0244 2.78388 11.1687L3.66776 12.0525ZM5.60361 11.1687C5.45933 11.0244 5.32922 10.8938 5.2133 10.7927C5.09313 10.6879 4.95485 10.5843 4.78215 10.5127L4.3038 11.6676C4.2988 11.6655 4.31954 11.6718 4.39163 11.7347C4.46796 11.8013 4.56335 11.8962 4.71973 12.0525L5.60361 11.1687ZM4.0837 11.6676C4.15416 11.6384 4.23333 11.6384 4.3038 11.6676L4.78215 10.5127C4.4054 10.3567 3.98209 10.3567 3.60535 10.5127L4.0837 11.6676ZM2.78388 11.1687C2.63959 11.3129 2.50901 11.4431 2.40789 11.559C2.30308 11.6791 2.19947 11.8174 2.12793 11.9901L3.28278 12.4685C3.28071 12.4735 3.28701 12.4527 3.34989 12.3806C3.41647 12.3043 3.51138 12.2089 3.66776 12.0525L2.78388 11.1687ZM3.66776 13.1045C3.51138 12.9481 3.41647 12.8527 3.34989 12.7764C3.28701 12.7043 3.28071 12.6836 3.28278 12.6886L2.12793 13.1669C2.19947 13.3396 2.30308 13.4779 2.40789 13.5981C2.50901 13.714 2.63959 13.8441 2.78388 13.9884L3.66776 13.1045ZM2.12793 11.9901C1.97188 12.3669 1.97188 12.7902 2.12793 13.1669L3.28278 12.6886C3.2536 12.6181 3.2536 12.5389 3.28278 12.4685L2.12793 11.9901ZM3.02248 14.6337L3.66776 13.9884L2.78388 13.1045L2.1386 13.7498L3.02248 14.6337ZM6.0103 16.3309L5.36501 16.9762L6.2489 17.8601L6.89418 17.2148L6.0103 16.3309ZM3.66776 16.9762L3.02248 16.3309L2.1386 17.2148L2.78388 17.8601L3.66776 16.9762ZM5.36502 16.9762C5.04833 17.2929 4.85434 17.485 4.69617 17.6057C4.62297 17.6615 4.57743 17.686 4.5514 17.6968C4.53035 17.7056 4.52196 17.7057 4.51639 17.7057L4.51639 18.9557C4.89699 18.9557 5.19945 18.794 5.45439 18.5995C5.69491 18.416 5.9572 18.1518 6.2489 17.8601L5.36502 16.9762ZM2.78388 17.8601C3.07558 18.1518 3.33787 18.416 3.57839 18.5995C3.83332 18.794 4.13579 18.9557 4.51639 18.9557L4.51639 17.7057C4.51082 17.7057 4.50243 17.7056 4.48138 17.6968C4.45535 17.686 4.40981 17.6615 4.33661 17.6057C4.17844 17.485 3.98445 17.2929 3.66776 16.9762L2.78388 17.8601ZM2.1386 13.7498C1.8469 14.0415 1.58273 14.3038 1.39922 14.5443C1.20471 14.7992 1.04297 15.1017 1.04297 15.4823H2.29297C2.29297 15.4767 2.29308 15.4684 2.30186 15.4473C2.31271 15.4213 2.33715 15.3757 2.393 15.3025C2.51368 15.1444 2.7058 14.9504 3.02248 14.6337L2.1386 13.7498ZM3.02248 16.3309C2.7058 16.0142 2.51368 15.8203 2.393 15.6621C2.33715 15.5889 2.31271 15.5433 2.30186 15.5173C2.29308 15.4963 2.29297 15.4879 2.29297 15.4823H1.04297C1.04297 15.8629 1.20471 16.1654 1.39922 16.4203C1.58273 16.6608 1.8469 16.9231 2.1386 17.2148L3.02248 16.3309ZM11.1726 5.59971L14.399 8.82613L15.2829 7.94224L12.0565 4.71583L11.1726 5.59971ZM17.2187 6.00639L13.9923 2.77997L13.1084 3.66386L16.3348 6.89028L17.2187 6.00639ZM17.2187 8.82613C17.363 8.68184 17.4936 8.55173 17.5947 8.43581C17.6995 8.31564 17.8031 8.17736 17.8747 8.00466L16.7198 7.52631C16.7219 7.52131 16.7156 7.54205 16.6527 7.61414C16.5861 7.69047 16.4912 7.78586 16.3348 7.94224L17.2187 8.82613ZM16.3348 6.89028C16.4912 7.04666 16.5861 7.14205 16.6527 7.21838C16.7156 7.29047 16.7219 7.31121 16.7198 7.30621L17.8747 6.82786C17.8031 6.65516 17.6995 6.51688 17.5947 6.39671C17.4936 6.28079 17.363 6.15068 17.2187 6.00639L16.3348 6.89028ZM17.8747 8.00466C18.0307 7.62791 18.0307 7.20461 17.8747 6.82786L16.7198 7.30621C16.749 7.37667 16.749 7.45585 16.7198 7.52631L17.8747 8.00466ZM14.399 8.82613C14.5433 8.97041 14.6734 9.101 14.7893 9.20212C14.9095 9.30693 15.0478 9.41054 15.2205 9.48207L15.6988 8.32722C15.7038 8.32929 15.6831 8.323 15.611 8.26012C15.5346 8.19353 15.4393 8.09862 15.2829 7.94224L14.399 8.82613ZM16.3348 7.94224C16.1785 8.09862 16.0831 8.19354 16.0067 8.26012C15.9346 8.323 15.9139 8.32929 15.9189 8.32722L16.3973 9.48207C16.57 9.41054 16.7082 9.30693 16.8284 9.20212C16.9443 9.101 17.0744 8.97041 17.2187 8.82613L16.3348 7.94224ZM15.2205 9.48207C15.5972 9.63813 16.0205 9.63813 16.3973 9.48207L15.9189 8.32722C15.8484 8.35641 15.7693 8.35641 15.6988 8.32722L15.2205 9.48207ZM11.1726 2.77997C11.0283 2.92426 10.8977 3.05437 10.7966 3.17029C10.6918 3.29046 10.5882 3.42874 10.5166 3.60144L11.6715 4.07979C11.6694 4.08479 11.6757 4.06405 11.7386 3.99196C11.8052 3.91563 11.9001 3.82024 12.0565 3.66386L11.1726 2.77997ZM12.0565 4.71583C11.9001 4.55945 11.8052 4.46406 11.7386 4.38772C11.6757 4.31563 11.6694 4.29489 11.6715 4.29989L10.5166 4.77824C10.5882 4.95094 10.6918 5.08922 10.7966 5.20939C10.8977 5.32532 11.0283 5.45542 11.1726 5.59971L12.0565 4.71583ZM10.5166 3.60144C10.3606 3.97819 10.3606 4.4015 10.5166 4.77824L11.6715 4.29989C11.6423 4.22943 11.6423 4.15026 11.6715 4.07979L10.5166 3.60144ZM12.0565 3.66386C12.2128 3.50748 12.3082 3.41257 12.3846 3.34598C12.4566 3.2831 12.4774 3.27681 12.4724 3.27888L11.994 2.12403C11.8213 2.19556 11.6831 2.29917 11.5629 2.40398C11.447 2.5051 11.3169 2.63569 11.1726 2.77997L12.0565 3.66386ZM13.9923 2.77997C13.848 2.63569 13.7179 2.5051 13.602 2.40398C13.4818 2.29917 13.3435 2.19556 13.1708 2.12403L12.6925 3.27888C12.6875 3.27681 12.7082 3.2831 12.7803 3.34598C12.8567 3.41257 12.952 3.50748 13.1084 3.66386L13.9923 2.77997ZM12.4724 3.27888C12.5429 3.24969 12.622 3.24969 12.6925 3.27888L13.1708 2.12403C12.7941 1.96797 12.3708 1.96797 11.994 2.12403L12.4724 3.27888ZM13.7537 2.13469L13.1084 2.77997L13.9923 3.66386L14.6376 3.01857L13.7537 2.13469ZM17.2187 6.89028L17.864 6.24499L16.9801 5.36111L16.3348 6.00639L17.2187 6.89028ZM17.864 2.77997L17.2187 2.13469L16.3348 3.01857L16.9801 3.66386L17.864 2.77997ZM17.864 6.24499C18.1557 5.9533 18.4199 5.691 18.6034 5.45049C18.7979 5.19555 18.9596 4.89308 18.9596 4.51248L17.7096 4.51248C17.7096 4.51805 17.7095 4.52644 17.7007 4.54749C17.6899 4.57352 17.6655 4.61906 17.6096 4.69226C17.4889 4.85043 17.2968 5.04443 16.9801 5.36111L17.864 6.24499ZM16.9801 3.66386C17.2968 3.98054 17.4889 4.17453 17.6096 4.33271C17.6655 4.40591 17.6899 4.45144 17.7007 4.47748C17.7095 4.49853 17.7096 4.50691 17.7096 4.51248L18.9596 4.51248C18.9596 4.13189 18.7979 3.82942 18.6034 3.57448C18.4199 3.33396 18.1557 3.07167 17.864 2.77997L16.9801 3.66386ZM14.6376 3.01857C14.9543 2.70189 15.1483 2.50977 15.3064 2.38909C15.3796 2.33324 15.4252 2.3088 15.4512 2.29795C15.4723 2.28917 15.4806 2.28906 15.4862 2.28906V1.03906C15.1056 1.03906 14.8032 1.2008 14.5482 1.39532C14.3077 1.57882 14.0454 1.84299 13.7537 2.13469L14.6376 3.01857ZM17.2187 2.13469C16.927 1.84299 16.6647 1.57882 16.4242 1.39532C16.1693 1.2008 15.8668 1.03906 15.4862 1.03906V2.28906C15.4918 2.28906 15.5002 2.28917 15.5212 2.29795C15.5473 2.3088 15.5928 2.33324 15.666 2.38909C15.8242 2.50977 16.0182 2.70189 16.3348 3.01857L17.2187 2.13469Z" fill="#DDF988"/>
</svg>
