<svg width="20" height="20" viewBox="0 0 20 20" fill="none" xmlns="http://www.w3.org/2000/svg">
<path d="M5.56885 4.16406C4.43177 4.21545 3.72921 4.3754 3.23223 4.87323C2.5 5.60672 2.5 6.78725 2.5 9.14832V13.3221C2.5 15.6832 2.5 16.8637 3.23223 17.5972C3.96447 18.3307 5.14298 18.3307 7.5 18.3307H12.5C14.857 18.3307 16.0355 18.3307 16.7678 17.5972C17.5 16.8637 17.5 15.6832 17.5 13.3221V9.14832C17.5 6.78725 17.5 5.60672 16.7678 4.87323C16.2708 4.3754 15.5682 4.21545 14.4312 4.16406" stroke="#DDF988" stroke-width="1.25" stroke-linejoin="round"/>
<path d="M5.85574 5.44761C5.45526 3.88102 5.25501 3.09772 5.58047 2.52313C5.66712 2.37017 5.77783 2.2315 5.90856 2.1122C6.39963 1.66406 7.22525 1.66406 8.87648 1.66406H11.1261C12.7774 1.66406 13.603 1.66406 14.094 2.1122C14.2248 2.2315 14.3355 2.37017 14.4221 2.52313C14.7476 3.09772 14.5473 3.88102 14.1469 5.44761C13.8276 6.69654 13.668 7.32101 13.2411 7.732C13.1249 7.84386 12.996 7.94231 12.8568 8.02541C12.3456 8.33073 11.6873 8.33073 10.3709 8.33073H9.63167C8.31525 8.33073 7.65705 8.33073 7.1458 8.02541C7.00665 7.94231 6.87772 7.84386 6.76154 7.732C6.33465 7.32101 6.17501 6.69654 5.85574 5.44761Z" stroke="#DDF988" stroke-width="1.25" stroke-linejoin="round"/>
<path d="M8.33203 14.9961H11.6654" stroke="#DDF988" stroke-width="1.25" stroke-linecap="round" stroke-linejoin="round"/>
<path d="M9.58203 8.33203L10.4154 5.83203" stroke="#DDF988" stroke-width="1.25" stroke-linecap="round" stroke-linejoin="round"/>
</svg>
